<svg version="1.1" viewBox="0.0 0.0 802.9475065616798 370.71391076115486" fill="none" stroke="none" stroke-linecap="square" stroke-miterlimit="10" xmlns:xlink="http://www.w3.org/1999/xlink" xmlns="http://www.w3.org/2000/svg"><clipPath id="p.0"><path d="m0 0l802.9475 0l0 370.7139l-802.9475 0l0 -370.7139z" clip-rule="nonzero"/></clipPath><g clip-path="url(#p.0)"><path fill="#000000" fill-opacity="0.0" d="m0 0l802.9475 0l0 370.7139l-802.9475 0z" fill-rule="evenodd"/><path fill="#ffffff" d="m0 3.6745407E-6l802.96063 0l0 370.70868l-802.96063 0z" fill-rule="evenodd"/><path fill="#6aa84f" d="m671.23755 86.77165l4.7874146 0l0 48.72441l-4.7874146 0z" fill-rule="evenodd"/><path fill="#000000" fill-opacity="0.0" d="m243.2769 183.1076l450.36218 0l0 53.322845l-450.36218 0z" fill-rule="evenodd"/><path fill="#000000" d="m252.23003 218.98761l7.7031403 -20.046875l2.859375 0l8.203125 20.046875l-3.015625 0l-2.34375 -6.078125l-8.375 0l-2.2031403 6.078125l-2.828125 0zm5.7968903 -8.234375l6.78125 0l-2.078125 -5.546875q-0.96875 -2.53125 -1.421875 -4.15625q-0.390625 1.921875 -1.09375 3.828125l-2.1875 5.875zm14.769531 8.234375l0 -14.515625l2.203125 0l0 2.03125q0.6875 -1.0625 1.8125 -1.703125q1.140625 -0.65625 2.59375 -0.65625q1.609375 0 2.640625 0.671875q1.03125 0.65625 1.453125 1.859375q1.734375 -2.53125 4.484375 -2.53125q2.171875 0 3.328125 1.203125q1.15625 1.1875 1.15625 3.671875l0 9.96875l-2.4375 0l0 -9.140625q0 -1.484375 -0.25 -2.125q-0.234375 -0.65625 -0.859375 -1.046875q-0.625 -0.40625 -1.484375 -0.40625q-1.53125 0 -2.546875 1.03125q-1.0 1.015625 -1.0 3.25l0 8.4375l-2.46875 0l0 -9.4375q0 -1.640625 -0.609375 -2.453125q-0.59375 -0.828125 -1.953125 -0.828125q-1.046875 0 -1.9375 0.546875q-0.875 0.546875 -1.265625 1.609375q-0.390625 1.046875 -0.390625 3.03125l0 7.53125l-2.46875 0zm22.417969 -7.265625q0 -4.03125 2.234375 -5.96875q1.875 -1.609375 4.5625 -1.609375q3.0 0 4.890625 1.96875q1.90625 1.953125 1.90625 5.40625q0 2.8125 -0.84375 4.421875q-0.828125 1.59375 -2.4375 2.484375q-1.609375 0.890625 -3.515625 0.890625q-3.046875 0 -4.921875 -1.953125q-1.875 -1.953125 -1.875 -5.640625zm2.515625 0q0 2.796875 1.21875 4.1875q1.21875 1.375 3.0625 1.375q1.84375 0 3.046875 -1.390625q1.21875 -1.390625 1.21875 -4.25q0 -2.6875 -1.21875 -4.078125q-1.21875 -1.390625 -3.046875 -1.390625q-1.84375 0 -3.0625 1.390625q-1.21875 1.375 -1.21875 4.15625zm23.478516 7.265625l0 -2.140625q-1.6875 2.46875 -4.609375 2.46875q-1.28125 0 -2.40625 -0.484375q-1.109375 -0.5 -1.65625 -1.234375q-0.53125 -0.75 -0.75 -1.84375q-0.140625 -0.71875 -0.140625 -2.296875l0 -8.984375l2.453125 0l0 8.046875q0 1.921875 0.15625 2.59375q0.234375 0.96875 0.984375 1.53125q0.75 0.546875 1.859375 0.546875q1.109375 0 2.078125 -0.5625q0.96875 -0.5625 1.375 -1.53125q0.40625 -0.984375 0.40625 -2.84375l0 -7.78125l2.453125 0l0 14.515625l-2.203125 0zm6.0566406 0l0 -14.515625l2.21875 0l0 2.0625q1.59375 -2.390625 4.625 -2.390625q1.3125 0 2.40625 0.46875q1.109375 0.46875 1.65625 1.234375q0.546875 0.765625 0.765625 1.8125q0.125 0.6875 0.125 2.40625l0 8.921875l-2.453125 0l0 -8.828125q0 -1.515625 -0.296875 -2.25q-0.28125 -0.75 -1.015625 -1.1875q-0.734375 -0.453125 -1.71875 -0.453125q-1.5625 0 -2.703125 1.0q-1.140625 1.0 -1.140625 3.78125l0 7.9375l-2.46875 0zm20.947266 -2.203125l0.359375 2.171875q-1.046875 0.21875 -1.859375 0.21875q-1.34375 0 -2.078125 -0.421875q-0.734375 -0.421875 -1.046875 -1.109375q-0.296875 -0.6875 -0.296875 -2.90625l0 -8.359375l-1.796875 0l0 -1.90625l1.796875 0l0 -3.59375l2.453125 -1.484375l0 5.078125l2.46875 0l0 1.90625l-2.46875 0l0 8.5q0 1.046875 0.125 1.34375q0.125 0.296875 0.421875 0.484375q0.296875 0.171875 0.84375 0.171875q0.40625 0 1.078125 -0.09375zm19.667969 0.40625q-1.375 1.171875 -2.640625 1.65625q-1.265625 0.46875 -2.71875 0.46875q-2.390625 0 -3.671875 -1.171875q-1.28125 -1.171875 -1.28125 -2.984375q0 -1.0625 0.484375 -1.9375q0.484375 -0.890625 1.265625 -1.421875q0.796875 -0.53125 1.78125 -0.8125q0.71875 -0.1875 2.1875 -0.375q2.96875 -0.34375 4.375 -0.84375q0.015625 -0.5 0.015625 -0.640625q0 -1.5 -0.6875 -2.125q-0.953125 -0.828125 -2.8125 -0.828125q-1.734375 0 -2.5625 0.609375q-0.828125 0.609375 -1.21875 2.15625l-2.40625 -0.328125q0.328125 -1.546875 1.078125 -2.5q0.75 -0.953125 2.171875 -1.453125q1.421875 -0.515625 3.296875 -0.515625q1.859375 0 3.015625 0.4375q1.171875 0.4375 1.71875 1.109375q0.546875 0.65625 0.765625 1.65625q0.125 0.640625 0.125 2.28125l0 3.28125q0 3.421875 0.15625 4.34375q0.15625 0.90625 0.625 1.734375l-2.578125 0q-0.375 -0.765625 -0.484375 -1.796875zm-0.21875 -5.484375q-1.328125 0.546875 -4.015625 0.921875q-1.515625 0.21875 -2.140625 0.5q-0.625 0.265625 -0.96875 0.796875q-0.34375 0.515625 -0.34375 1.171875q0 0.984375 0.734375 1.640625q0.75 0.65625 2.1875 0.65625q1.421875 0 2.53125 -0.625q1.109375 -0.625 1.625 -1.703125q0.390625 -0.84375 0.390625 -2.46875l0 -0.890625zm15.791016 1.96875l2.40625 0.3125q-0.390625 2.5 -2.03125 3.921875q-1.625 1.40625 -4.0 1.40625q-2.984375 0 -4.796875 -1.9375q-1.8125 -1.953125 -1.8125 -5.59375q0 -2.359375 0.78125 -4.109375q0.78125 -1.765625 2.375 -2.640625q1.59375 -0.890625 3.46875 -0.890625q2.359375 0 3.859375 1.203125q1.5 1.1875 1.9375 3.390625l-2.40625 0.359375q-0.328125 -1.453125 -1.203125 -2.1875q-0.875 -0.75 -2.09375 -0.75q-1.859375 0 -3.03125 1.34375q-1.15625 1.328125 -1.15625 4.203125q0 2.9375 1.109375 4.265625q1.125 1.3125 2.9375 1.3125q1.453125 0 2.421875 -0.875q0.96875 -0.890625 1.234375 -2.734375zm9.890625 3.109375l0.359375 2.171875q-1.046875 0.21875 -1.859375 0.21875q-1.34375 0 -2.078125 -0.421875q-0.734375 -0.421875 -1.046875 -1.109375q-0.296875 -0.6875 -0.296875 -2.90625l0 -8.359375l-1.796875 0l0 -1.90625l1.796875 0l0 -3.59375l2.453125 -1.484375l0 5.078125l2.46875 0l0 1.90625l-2.46875 0l0 8.5q0 1.046875 0.125 1.34375q0.125 0.296875 0.421875 0.484375q0.296875 0.171875 0.84375 0.171875q0.40625 0 1.078125 -0.09375zm11.919922 2.203125l0 -2.140625q-1.6875 2.46875 -4.609375 2.46875q-1.28125 0 -2.40625 -0.484375q-1.109375 -0.5 -1.65625 -1.234375q-0.53125 -0.75 -0.75 -1.84375q-0.140625 -0.71875 -0.140625 -2.296875l0 -8.984375l2.453125 0l0 8.046875q0 1.921875 0.15625 2.59375q0.234375 0.96875 0.984375 1.53125q0.75 0.546875 1.859375 0.546875q1.109375 0 2.078125 -0.5625q0.96875 -0.5625 1.375 -1.53125q0.40625 -0.984375 0.40625 -2.84375l0 -7.78125l2.453125 0l0 14.515625l-2.203125 0zm15.541016 -1.796875q-1.375 1.171875 -2.640625 1.65625q-1.265625 0.46875 -2.71875 0.46875q-2.390625 0 -3.671875 -1.171875q-1.28125 -1.171875 -1.28125 -2.984375q0 -1.0625 0.484375 -1.9375q0.484375 -0.890625 1.265625 -1.421875q0.796875 -0.53125 1.78125 -0.8125q0.71875 -0.1875 2.1875 -0.375q2.96875 -0.34375 4.375 -0.84375q0.015625 -0.5 0.015625 -0.640625q0 -1.5 -0.6875 -2.125q-0.953125 -0.828125 -2.8125 -0.828125q-1.734375 0 -2.5625 0.609375q-0.828125 0.609375 -1.21875 2.15625l-2.40625 -0.328125q0.328125 -1.546875 1.078125 -2.5q0.75 -0.953125 2.171875 -1.453125q1.421875 -0.515625 3.296875 -0.515625q1.859375 0 3.015625 0.4375q1.171875 0.4375 1.71875 1.109375q0.546875 0.65625 0.765625 1.65625q0.125 0.640625 0.125 2.28125l0 3.28125q0 3.421875 0.15625 4.34375q0.15625 0.90625 0.625 1.734375l-2.578125 0q-0.375 -0.765625 -0.484375 -1.796875zm-0.21875 -5.484375q-1.328125 0.546875 -4.015625 0.921875q-1.515625 0.21875 -2.140625 0.5q-0.625 0.265625 -0.96875 0.796875q-0.34375 0.515625 -0.34375 1.171875q0 0.984375 0.734375 1.640625q0.75 0.65625 2.1875 0.65625q1.421875 0 2.53125 -0.625q1.109375 -0.625 1.625 -1.703125q0.390625 -0.84375 0.390625 -2.46875l0 -0.890625zm6.2597656 7.28125l0 -20.046875l2.453125 0l0 20.046875l-2.453125 0zm6.220703 0l0 -20.046875l2.453125 0l0 20.046875l-2.453125 0zm6.158203 5.59375l-0.265625 -2.3125q0.796875 0.21875 1.40625 0.21875q0.8125 0 1.296875 -0.28125q0.5 -0.265625 0.8125 -0.75q0.234375 -0.375 0.765625 -1.84375q0.0625 -0.203125 0.21875 -0.59375l-5.515625 -14.546875l2.65625 0l3.015625 8.40625q0.59375 1.59375 1.046875 3.359375q0.4375 -1.6875 1.015625 -3.3125l3.109375 -8.453125l2.453125 0l-5.515625 14.765625q-0.890625 2.390625 -1.390625 3.296875q-0.65625 1.21875 -1.5 1.78125q-0.84375 0.5625 -2.015625 0.5625q-0.71875 0 -1.59375 -0.296875zm21.888672 -5.59375l0 -14.515625l2.21875 0l0 2.0625q1.59375 -2.390625 4.625 -2.390625q1.3125 0 2.40625 0.46875q1.109375 0.46875 1.65625 1.234375q0.546875 0.765625 0.765625 1.8125q0.125 0.6875 0.125 2.40625l0 8.921875l-2.453125 0l0 -8.828125q0 -1.515625 -0.296875 -2.25q-0.28125 -0.75 -1.015625 -1.1875q-0.734375 -0.453125 -1.71875 -0.453125q-1.5625 0 -2.703125 1.0q-1.140625 1.0 -1.140625 3.78125l0 7.9375l-2.46875 0zm25.509766 -4.671875l2.546875 0.3125q-0.59375 2.21875 -2.234375 3.453125q-1.625 1.234375 -4.15625 1.234375q-3.171875 0 -5.046875 -1.953125q-1.859375 -1.96875 -1.859375 -5.515625q0 -3.65625 1.875 -5.671875q1.890625 -2.03125 4.90625 -2.03125q2.90625 0 4.75 1.984375q1.84375 1.96875 1.84375 5.578125q0 0.21875 -0.015625 0.65625l-10.828125 0q0.140625 2.390625 1.359375 3.65625q1.21875 1.265625 3.03125 1.265625q1.359375 0 2.3125 -0.703125q0.953125 -0.71875 1.515625 -2.265625zm-8.078125 -3.984375l8.109375 0q-0.15625 -1.828125 -0.921875 -2.75q-1.1875 -1.421875 -3.0625 -1.421875q-1.6875 0 -2.84375 1.140625q-1.15625 1.125 -1.28125 3.03125zm23.65039 3.984375l2.546875 0.3125q-0.59375 2.21875 -2.234375 3.453125q-1.625 1.234375 -4.15625 1.234375q-3.171875 0 -5.046875 -1.953125q-1.859375 -1.96875 -1.859375 -5.515625q0 -3.65625 1.875 -5.671875q1.890625 -2.03125 4.90625 -2.03125q2.90625 0 4.75 1.984375q1.84375 1.96875 1.84375 5.578125q0 0.21875 -0.015625 0.65625l-10.828125 0q0.140625 2.390625 1.359375 3.65625q1.21875 1.265625 3.03125 1.265625q1.359375 0 2.3125 -0.703125q0.953125 -0.71875 1.515625 -2.265625zm-8.078125 -3.984375l8.109375 0q-0.15625 -1.828125 -0.921875 -2.75q-1.1875 -1.421875 -3.0625 -1.421875q-1.6875 0 -2.84375 1.140625q-1.15625 1.125 -1.28125 3.03125zm23.134766 8.65625l0 -1.828125q-1.375 2.15625 -4.0625 2.15625q-1.734375 0 -3.1875 -0.953125q-1.453125 -0.96875 -2.265625 -2.671875q-0.796875 -1.71875 -0.796875 -3.953125q0 -2.171875 0.71875 -3.9375q0.734375 -1.78125 2.1875 -2.71875q1.453125 -0.9375 3.234375 -0.9375q1.3125 0 2.328125 0.5625q1.03125 0.546875 1.6875 1.421875l0 -7.1875l2.4375 0l0 20.046875l-2.28125 0zm-7.78125 -7.25q0 2.796875 1.171875 4.171875q1.1875 1.375 2.78125 1.375q1.609375 0 2.734375 -1.3125q1.140625 -1.3125 1.140625 -4.03125q0 -2.96875 -1.15625 -4.359375q-1.140625 -1.40625 -2.828125 -1.40625q-1.640625 0 -2.75 1.34375q-1.09375 1.34375 -1.09375 4.21875zm23.86914 2.578125l2.546875 0.3125q-0.59375 2.21875 -2.234375 3.453125q-1.625 1.234375 -4.15625 1.234375q-3.171875 0 -5.046875 -1.953125q-1.859375 -1.96875 -1.859375 -5.515625q0 -3.65625 1.875 -5.671875q1.890625 -2.03125 4.90625 -2.03125q2.90625 0 4.75 1.984375q1.84375 1.96875 1.84375 5.578125q0 0.21875 -0.015625 0.65625l-10.828125 0q0.140625 2.390625 1.359375 3.65625q1.21875 1.265625 3.03125 1.265625q1.359375 0 2.3125 -0.703125q0.953125 -0.71875 1.515625 -2.265625zm-8.078125 -3.984375l8.109375 0q-0.15625 -1.828125 -0.921875 -2.75q-1.1875 -1.421875 -3.0625 -1.421875q-1.6875 0 -2.84375 1.140625q-1.15625 1.125 -1.28125 3.03125zm23.134766 8.65625l0 -1.828125q-1.375 2.15625 -4.0625 2.15625q-1.734375 0 -3.1875 -0.953125q-1.453125 -0.96875 -2.265625 -2.671875q-0.796875 -1.71875 -0.796875 -3.953125q0 -2.171875 0.71875 -3.9375q0.734375 -1.78125 2.1875 -2.71875q1.453125 -0.9375 3.234375 -0.9375q1.3125 0 2.328125 0.5625q1.03125 0.546875 1.6875 1.421875l0 -7.1875l2.4375 0l0 20.046875l-2.28125 0zm-7.78125 -7.25q0 2.796875 1.171875 4.171875q1.1875 1.375 2.78125 1.375q1.609375 0 2.734375 -1.3125q1.140625 -1.3125 1.140625 -4.03125q0 -2.96875 -1.15625 -4.359375q-1.140625 -1.40625 -2.828125 -1.40625q-1.640625 0 -2.75 1.34375q-1.09375 1.34375 -1.09375 4.21875zm14.619141 -4.46875l0 -2.796875l2.796875 0l0 2.796875l-2.796875 0zm0 11.71875l0 -2.796875l2.796875 0l0 2.796875l-2.796875 0zm23.464844 0l-2.46875 0l0 -15.6875q-0.890625 0.859375 -2.328125 1.703125q-1.4375 0.84375 -2.59375 1.265625l0 -2.375q2.0625 -0.96875 3.609375 -2.34375q1.546875 -1.390625 2.1875 -2.6875l1.59375 0l0 20.125zm6.2910156 -9.890625q0 -3.546875 0.734375 -5.71875q0.734375 -2.171875 2.171875 -3.34375q1.453125 -1.171875 3.640625 -1.171875q1.609375 0 2.828125 0.65625q1.21875 0.640625 2.0 1.875q0.796875 1.21875 1.25 2.984375q0.453125 1.75 0.453125 4.71875q0 3.53125 -0.734375 5.703125q-0.71875 2.15625 -2.15625 3.34375q-1.4375 1.1875 -3.640625 1.1875q-2.90625 0 -4.5625 -2.078125q-1.984375 -2.5 -1.984375 -8.15625zm2.53125 0q0 4.9375 1.15625 6.578125q1.15625 1.625 2.859375 1.625q1.6875 0 2.84375 -1.640625q1.15625 -1.640625 1.15625 -6.5625q0 -4.9375 -1.15625 -6.5625q-1.15625 -1.640625 -2.875 -1.640625q-1.703125 0 -2.703125 1.4375q-1.28125 1.828125 -1.28125 6.765625zm13.041016 0q0 -3.546875 0.734375 -5.71875q0.734375 -2.171875 2.171875 -3.34375q1.453125 -1.171875 3.640625 -1.171875q1.609375 0 2.828125 0.65625q1.21875 0.640625 2.0 1.875q0.796875 1.21875 1.25 2.984375q0.453125 1.75 0.453125 4.71875q0 3.53125 -0.734375 5.703125q-0.71875 2.15625 -2.15625 3.34375q-1.4375 1.1875 -3.640625 1.1875q-2.90625 0 -4.5625 -2.078125q-1.984375 -2.5 -1.984375 -8.15625zm2.53125 0q0 4.9375 1.15625 6.578125q1.15625 1.625 2.859375 1.625q1.6875 0 2.84375 -1.640625q1.15625 -1.640625 1.15625 -6.5625q0 -4.9375 -1.15625 -6.5625q-1.15625 -1.640625 -2.875 -1.640625q-1.703125 0 -2.703125 1.4375q-1.28125 1.828125 -1.28125 6.765625zm21.710938 9.890625l0 -20.046875l2.65625 0l0 9.9375l9.953125 -9.9375l3.59375 0l-8.40625 8.125l8.78125 11.921875l-3.5 0l-7.140625 -10.140625l-3.28125 3.1875l0 6.953125l-2.65625 0zm18.675781 0l0 -20.046875l7.53125 0q2.296875 0 3.671875 0.609375q1.390625 0.609375 2.171875 1.875q0.796875 1.265625 0.796875 2.640625q0 1.296875 -0.703125 2.4375q-0.6875 1.125 -2.109375 1.8125q1.828125 0.546875 2.796875 1.828125q0.984375 1.28125 0.984375 3.03125q0 1.40625 -0.59375 2.625q-0.59375 1.203125 -1.46875 1.859375q-0.875 0.65625 -2.203125 1.0q-1.3125 0.328125 -3.234375 0.328125l-7.640625 0zm2.65625 -11.625l4.328125 0q1.765625 0 2.53125 -0.234375q1.015625 -0.296875 1.53125 -0.984375q0.515625 -0.703125 0.515625 -1.765625q0 -0.984375 -0.484375 -1.75q-0.484375 -0.765625 -1.375 -1.03125q-0.875 -0.28125 -3.046875 -0.28125l-4.0 0l0 6.046875zm0 9.265625l4.984375 0q1.296875 0 1.8125 -0.109375q0.921875 -0.15625 1.53125 -0.53125q0.609375 -0.390625 1.0 -1.125q0.40625 -0.734375 0.40625 -1.6875q0 -1.125 -0.578125 -1.953125q-0.5625 -0.828125 -1.59375 -1.15625q-1.015625 -0.328125 -2.921875 -0.328125l-4.640625 0l0 6.890625z" fill-rule="nonzero"/><path fill="#000000" fill-opacity="0.0" d="m243.2769 284.042l433.70074 0l0 53.322845l-433.70074 0z" fill-rule="evenodd"/><path fill="#000000" d="m254.35503 319.922l0 -20.046875l4.0000153 0l4.734375 14.1875q0.65625 1.984375 0.953125 2.96875q0.34375 -1.09375 1.078125 -3.203125l4.796875 -13.953125l3.5625 0l0 20.046875l-2.546875 0l0 -16.78125l-5.828125 16.78125l-2.390625 0l-5.796875 -17.0625l0 17.0625l-2.5625153 0zm28.511734 0l0 -17.671875l-6.609375 0l0 -2.375l15.890625 0l0 2.375l-6.640625 0l0 17.671875l-2.640625 0zm11.884766 0l0 -20.046875l2.65625 0l0 17.6875l9.875 0l0 2.359375l-12.53125 0zm15.572266 0l0 -20.046875l2.65625 0l0 17.6875l9.875 0l0 2.359375l-12.53125 0zm24.853516 -1.796875q-1.375 1.171875 -2.640625 1.65625q-1.265625 0.46875 -2.71875 0.46875q-2.390625 0 -3.671875 -1.171875q-1.28125 -1.171875 -1.28125 -2.984375q0 -1.0625 0.484375 -1.9375q0.484375 -0.890625 1.265625 -1.421875q0.796875 -0.53125 1.78125 -0.8125q0.71875 -0.1875 2.1875 -0.375q2.96875 -0.34375 4.375 -0.84375q0.015625 -0.5 0.015625 -0.640625q0 -1.5 -0.6875 -2.125q-0.953125 -0.828125 -2.8125 -0.828125q-1.734375 0 -2.5625 0.609375q-0.828125 0.609375 -1.21875 2.15625l-2.40625 -0.328125q0.328125 -1.546875 1.078125 -2.5q0.75 -0.953125 2.171875 -1.453125q1.421875 -0.515625 3.296875 -0.515625q1.859375 0 3.015625 0.4375q1.171875 0.4375 1.71875 1.109375q0.546875 0.65625 0.765625 1.65625q0.125 0.640625 0.125 2.28125l0 3.28125q0 3.421875 0.15625 4.34375q0.15625 0.90625 0.625 1.734375l-2.578125 0q-0.375 -0.765625 -0.484375 -1.796875zm-0.21875 -5.484375q-1.328125 0.546875 -4.015625 0.921875q-1.515625 0.21875 -2.140625 0.5q-0.625 0.265625 -0.96875 0.796875q-0.34375 0.515625 -0.34375 1.171875q0 0.984375 0.734375 1.640625q0.75 0.65625 2.1875 0.65625q1.421875 0 2.53125 -0.625q1.109375 -0.625 1.625 -1.703125q0.390625 -0.84375 0.390625 -2.46875l0 -0.890625zm6.1972656 12.875l-0.265625 -2.3125q0.796875 0.21875 1.40625 0.21875q0.8125 0 1.296875 -0.28125q0.5 -0.265625 0.8125 -0.75q0.234375 -0.375 0.765625 -1.84375q0.0625 -0.203125 0.21875 -0.59375l-5.515625 -14.546875l2.65625 0l3.015625 8.40625q0.59375 1.59375 1.046875 3.359375q0.4375 -1.6875 1.015625 -3.3125l3.109375 -8.453125l2.453125 0l-5.515625 14.765625q-0.890625 2.390625 -1.390625 3.296875q-0.65625 1.21875 -1.5 1.78125q-0.84375 0.5625 -2.015625 0.5625q-0.71875 0 -1.59375 -0.296875zm24.046875 -10.265625l2.546875 0.3125q-0.59375 2.21875 -2.234375 3.453125q-1.625 1.234375 -4.15625 1.234375q-3.171875 0 -5.046875 -1.953125q-1.859375 -1.96875 -1.859375 -5.515625q0 -3.65625 1.875 -5.671875q1.890625 -2.03125 4.90625 -2.03125q2.90625 0 4.75 1.984375q1.84375 1.96875 1.84375 5.578125q0 0.21875 -0.015625 0.65625l-10.828125 0q0.140625 2.390625 1.359375 3.65625q1.21875 1.265625 3.03125 1.265625q1.359375 0 2.3125 -0.703125q0.953125 -0.71875 1.515625 -2.265625zm-8.078125 -3.984375l8.109375 0q-0.15625 -1.828125 -0.921875 -2.75q-1.1875 -1.421875 -3.0625 -1.421875q-1.6875 0 -2.84375 1.140625q-1.15625 1.125 -1.28125 3.03125zm13.681641 8.65625l0 -14.515625l2.21875 0l0 2.203125q0.84375 -1.546875 1.5625 -2.03125q0.71875 -0.5 1.578125 -0.5q1.25 0 2.53125 0.78125l-0.84375 2.296875q-0.90625 -0.546875 -1.796875 -0.546875q-0.8125 0 -1.453125 0.5q-0.640625 0.484375 -0.921875 1.34375q-0.40625 1.3125 -0.40625 2.859375l0 7.609375l-2.46875 0zm19.292969 -4.671875l2.546875 0.3125q-0.59375 2.21875 -2.234375 3.453125q-1.625 1.234375 -4.15625 1.234375q-3.171875 0 -5.046875 -1.953125q-1.859375 -1.96875 -1.859375 -5.515625q0 -3.65625 1.875 -5.671875q1.890625 -2.03125 4.90625 -2.03125q2.90625 0 4.75 1.984375q1.84375 1.96875 1.84375 5.578125q0 0.21875 -0.015625 0.65625l-10.828125 0q0.140625 2.390625 1.359375 3.65625q1.21875 1.265625 3.03125 1.265625q1.359375 0 2.3125 -0.703125q0.953125 -0.71875 1.515625 -2.265625zm-8.078125 -3.984375l8.109375 0q-0.15625 -1.828125 -0.921875 -2.75q-1.1875 -1.421875 -3.0625 -1.421875q-1.6875 0 -2.84375 1.140625q-1.15625 1.125 -1.28125 3.03125zm23.134766 8.65625l0 -1.828125q-1.375 2.15625 -4.0625 2.15625q-1.734375 0 -3.1875 -0.953125q-1.453125 -0.96875 -2.265625 -2.671875q-0.796875 -1.71875 -0.796875 -3.953125q0 -2.171875 0.71875 -3.9375q0.734375 -1.78125 2.1875 -2.71875q1.453125 -0.9375 3.234375 -0.9375q1.3125 0 2.328125 0.5625q1.03125 0.546875 1.6875 1.421875l0 -7.1875l2.4375 0l0 20.046875l-2.28125 0zm-7.78125 -7.25q0 2.796875 1.171875 4.171875q1.1875 1.375 2.78125 1.375q1.609375 0 2.734375 -1.3125q1.140625 -1.3125 1.140625 -4.03125q0 -2.96875 -1.15625 -4.359375q-1.140625 -1.40625 -2.828125 -1.40625q-1.640625 0 -2.75 1.34375q-1.09375 1.34375 -1.09375 4.21875zm14.134766 7.25l0 -20.046875l7.53125 0q2.296875 0 3.671875 0.609375q1.390625 0.609375 2.171875 1.875q0.796875 1.265625 0.796875 2.640625q0 1.296875 -0.703125 2.4375q-0.6875 1.125 -2.109375 1.8125q1.828125 0.546875 2.796875 1.828125q0.984375 1.28125 0.984375 3.03125q0 1.40625 -0.59375 2.625q-0.59375 1.203125 -1.46875 1.859375q-0.875 0.65625 -2.203125 1.0q-1.3125 0.328125 -3.234375 0.328125l-7.640625 0zm2.65625 -11.625l4.328125 0q1.765625 0 2.53125 -0.234375q1.015625 -0.296875 1.53125 -0.984375q0.515625 -0.703125 0.515625 -1.765625q0 -0.984375 -0.484375 -1.75q-0.484375 -0.765625 -1.375 -1.03125q-0.875 -0.28125 -3.046875 -0.28125l-4.0 0l0 6.046875zm0 9.265625l4.984375 0q1.296875 0 1.8125 -0.109375q0.921875 -0.15625 1.53125 -0.53125q0.609375 -0.390625 1.0 -1.125q0.40625 -0.734375 0.40625 -1.6875q0 -1.125 -0.578125 -1.953125q-0.5625 -0.828125 -1.59375 -1.15625q-1.015625 -0.328125 -2.921875 -0.328125l-4.640625 0l0 6.890625zm25.332031 2.359375l0 -2.140625q-1.6875 2.46875 -4.609375 2.46875q-1.28125 0 -2.40625 -0.484375q-1.109375 -0.5 -1.65625 -1.234375q-0.53125 -0.75 -0.75 -1.84375q-0.140625 -0.71875 -0.140625 -2.296875l0 -8.984375l2.453125 0l0 8.046875q0 1.921875 0.15625 2.59375q0.234375 0.96875 0.984375 1.53125q0.75 0.546875 1.859375 0.546875q1.109375 0 2.078125 -0.5625q0.96875 -0.5625 1.375 -1.53125q0.40625 -0.984375 0.40625 -2.84375l0 -7.78125l2.453125 0l0 14.515625l-2.203125 0zm6.6503906 0l0 -12.609375l-2.171875 0l0 -1.90625l2.171875 0l0 -1.546875q0 -1.46875 0.25 -2.171875q0.359375 -0.96875 1.25 -1.5625q0.90625 -0.59375 2.515625 -0.59375q1.046875 0 2.296875 0.25l-0.375 2.140625q-0.765625 -0.125 -1.4375 -0.125q-1.125 0 -1.59375 0.484375q-0.46875 0.46875 -0.46875 1.78125l0 1.34375l2.84375 0l0 1.90625l-2.84375 0l0 12.609375l-2.4375 0zm7.2734375 0l0 -12.609375l-2.171875 0l0 -1.90625l2.171875 0l0 -1.546875q0 -1.46875 0.25 -2.171875q0.359375 -0.96875 1.25 -1.5625q0.90625 -0.59375 2.515625 -0.59375q1.046875 0 2.296875 0.25l-0.375 2.140625q-0.765625 -0.125 -1.4375 -0.125q-1.125 0 -1.59375 0.484375q-0.46875 0.46875 -0.46875 1.78125l0 1.34375l2.84375 0l0 1.90625l-2.84375 0l0 12.609375l-2.4375 0zm17.123047 -4.671875l2.546875 0.3125q-0.59375 2.21875 -2.234375 3.453125q-1.625 1.234375 -4.15625 1.234375q-3.171875 0 -5.046875 -1.953125q-1.859375 -1.96875 -1.859375 -5.515625q0 -3.65625 1.875 -5.671875q1.890625 -2.03125 4.90625 -2.03125q2.90625 0 4.75 1.984375q1.84375 1.96875 1.84375 5.578125q0 0.21875 -0.015625 0.65625l-10.828125 0q0.140625 2.390625 1.359375 3.65625q1.21875 1.265625 3.03125 1.265625q1.359375 0 2.3125 -0.703125q0.953125 -0.71875 1.515625 -2.265625zm-8.078125 -3.984375l8.109375 0q-0.15625 -1.828125 -0.921875 -2.75q-1.1875 -1.421875 -3.0625 -1.421875q-1.6875 0 -2.84375 1.140625q-1.15625 1.125 -1.28125 3.03125zm13.681641 8.65625l0 -14.515625l2.21875 0l0 2.203125q0.84375 -1.546875 1.5625 -2.03125q0.71875 -0.5 1.578125 -0.5q1.25 0 2.53125 0.78125l-0.84375 2.296875q-0.90625 -0.546875 -1.796875 -0.546875q-0.8125 0 -1.453125 0.5q-0.640625 0.484375 -0.921875 1.34375q-0.40625 1.3125 -0.40625 2.859375l0 7.609375l-2.46875 0zm22.509766 -2.203125l0.359375 2.171875q-1.046875 0.21875 -1.859375 0.21875q-1.34375 0 -2.078125 -0.421875q-0.734375 -0.421875 -1.046875 -1.109375q-0.296875 -0.6875 -0.296875 -2.90625l0 -8.359375l-1.796875 0l0 -1.90625l1.796875 0l0 -3.59375l2.453125 -1.484375l0 5.078125l2.46875 0l0 1.90625l-2.46875 0l0 8.5q0 1.046875 0.125 1.34375q0.125 0.296875 0.421875 0.484375q0.296875 0.171875 0.84375 0.171875q0.40625 0 1.078125 -0.09375zm1.4980469 -5.0625q0 -4.03125 2.234375 -5.96875q1.875 -1.609375 4.5625 -1.609375q3.0 0 4.890625 1.96875q1.90625 1.953125 1.90625 5.40625q0 2.8125 -0.84375 4.421875q-0.828125 1.59375 -2.4375 2.484375q-1.609375 0.890625 -3.515625 0.890625q-3.046875 0 -4.921875 -1.953125q-1.875 -1.953125 -1.875 -5.640625zm2.515625 0q0 2.796875 1.21875 4.1875q1.21875 1.375 3.0625 1.375q1.84375 0 3.046875 -1.390625q1.21875 -1.390625 1.21875 -4.25q0 -2.6875 -1.21875 -4.078125q-1.21875 -1.390625 -3.046875 -1.390625q-1.84375 0 -3.0625 1.390625q-1.21875 1.375 -1.21875 4.15625zm27.117188 5.0625l0.359375 2.171875q-1.046875 0.21875 -1.859375 0.21875q-1.34375 0 -2.078125 -0.421875q-0.734375 -0.421875 -1.046875 -1.109375q-0.296875 -0.6875 -0.296875 -2.90625l0 -8.359375l-1.796875 0l0 -1.90625l1.796875 0l0 -3.59375l2.453125 -1.484375l0 5.078125l2.46875 0l0 1.90625l-2.46875 0l0 8.5q0 1.046875 0.125 1.34375q0.125 0.296875 0.421875 0.484375q0.296875 0.171875 0.84375 0.171875q0.40625 0 1.078125 -0.09375zm2.4042969 2.203125l0 -20.046875l2.46875 0l0 7.1875q1.71875 -1.984375 4.34375 -1.984375q1.609375 0 2.796875 0.640625q1.1875 0.625 1.703125 1.75q0.515625 1.125 0.515625 3.25l0 9.203125l-2.453125 0l0 -9.203125q0 -1.84375 -0.8125 -2.6875q-0.796875 -0.84375 -2.25 -0.84375q-1.09375 0 -2.0625 0.578125q-0.96875 0.5625 -1.375 1.53125q-0.40625 0.96875 -0.40625 2.6875l0 7.9375l-2.46875 0zm25.509766 -4.671875l2.546875 0.3125q-0.59375 2.21875 -2.234375 3.453125q-1.625 1.234375 -4.15625 1.234375q-3.171875 0 -5.046875 -1.953125q-1.859375 -1.96875 -1.859375 -5.515625q0 -3.65625 1.875 -5.671875q1.890625 -2.03125 4.90625 -2.03125q2.90625 0 4.75 1.984375q1.84375 1.96875 1.84375 5.578125q0 0.21875 -0.015625 0.65625l-10.828125 0q0.140625 2.390625 1.359375 3.65625q1.21875 1.265625 3.03125 1.265625q1.359375 0 2.3125 -0.703125q0.953125 -0.71875 1.515625 -2.265625zm-8.078125 -3.984375l8.109375 0q-0.15625 -1.828125 -0.921875 -2.75q-1.1875 -1.421875 -3.0625 -1.421875q-1.6875 0 -2.84375 1.140625q-1.15625 1.125 -1.28125 3.03125zm21.460938 8.65625l0 -14.515625l2.21875 0l0 2.203125q0.84375 -1.546875 1.5625 -2.03125q0.71875 -0.5 1.578125 -0.5q1.25 0 2.53125 0.78125l-0.84375 2.296875q-0.90625 -0.546875 -1.796875 -0.546875q-0.8125 0 -1.453125 0.5q-0.640625 0.484375 -0.921875 1.34375q-0.40625 1.3125 -0.40625 2.859375l0 7.609375l-2.46875 0zm19.292969 -4.671875l2.546875 0.3125q-0.59375 2.21875 -2.234375 3.453125q-1.625 1.234375 -4.15625 1.234375q-3.171875 0 -5.046875 -1.953125q-1.859375 -1.96875 -1.859375 -5.515625q0 -3.65625 1.875 -5.671875q1.890625 -2.03125 4.90625 -2.03125q2.90625 0 4.75 1.984375q1.84375 1.96875 1.84375 5.578125q0 0.21875 -0.015625 0.65625l-10.828125 0q0.140625 2.390625 1.359375 3.65625q1.21875 1.265625 3.03125 1.265625q1.359375 0 2.3125 -0.703125q0.953125 -0.71875 1.515625 -2.265625zm-8.078125 -3.984375l8.109375 0q-0.15625 -1.828125 -0.921875 -2.75q-1.1875 -1.421875 -3.0625 -1.421875q-1.6875 0 -2.84375 1.140625q-1.15625 1.125 -1.28125 3.03125zm12.728516 4.328125l2.4375 -0.390625q0.203125 1.46875 1.140625 2.25q0.9375 0.765625 2.625 0.765625q1.6875 0 2.5 -0.6875q0.828125 -0.6875 0.828125 -1.609375q0 -0.84375 -0.71875 -1.3125q-0.515625 -0.328125 -2.515625 -0.84375q-2.71875 -0.6875 -3.765625 -1.171875q-1.03125 -0.5 -1.578125 -1.375q-0.546875 -0.890625 -0.546875 -1.96875q0 -0.96875 0.4375 -1.796875q0.453125 -0.828125 1.21875 -1.375q0.578125 -0.421875 1.5625 -0.703125q1.0 -0.296875 2.140625 -0.296875q1.703125 0 2.984375 0.5q1.296875 0.484375 1.90625 1.328125q0.625 0.828125 0.859375 2.234375l-2.40625 0.328125q-0.171875 -1.109375 -0.953125 -1.734375q-0.78125 -0.640625 -2.21875 -0.640625q-1.703125 0 -2.421875 0.5625q-0.71875 0.5625 -0.71875 1.3125q0 0.484375 0.296875 0.859375q0.296875 0.40625 0.9375 0.65625q0.375 0.140625 2.171875 0.625q2.625 0.703125 3.65625 1.15625q1.03125 0.4375 1.609375 1.28125q0.59375 0.84375 0.59375 2.109375q0 1.234375 -0.71875 2.328125q-0.71875 1.078125 -2.078125 1.671875q-1.34375 0.59375 -3.0625 0.59375q-2.828125 0 -4.3125 -1.171875q-1.484375 -1.1875 -1.890625 -3.484375zm24.46875 -0.984375l2.40625 0.3125q-0.390625 2.5 -2.03125 3.921875q-1.625 1.40625 -4.0 1.40625q-2.984375 0 -4.796875 -1.9375q-1.8125 -1.953125 -1.8125 -5.59375q0 -2.359375 0.78125 -4.109375q0.78125 -1.765625 2.375 -2.640625q1.59375 -0.890625 3.46875 -0.890625q2.359375 0 3.859375 1.203125q1.5 1.1875 1.9375 3.390625l-2.40625 0.359375q-0.328125 -1.453125 -1.203125 -2.1875q-0.875 -0.75 -2.09375 -0.75q-1.859375 0 -3.03125 1.34375q-1.15625 1.328125 -1.15625 4.203125q0 2.9375 1.109375 4.265625q1.125 1.3125 2.9375 1.3125q1.453125 0 2.421875 -0.875q0.96875 -0.890625 1.234375 -2.734375zm14.03125 5.3125l0 -2.140625q-1.6875 2.46875 -4.609375 2.46875q-1.28125 0 -2.40625 -0.484375q-1.109375 -0.5 -1.65625 -1.234375q-0.53125 -0.75 -0.75 -1.84375q-0.140625 -0.71875 -0.140625 -2.296875l0 -8.984375l2.453125 0l0 8.046875q0 1.921875 0.15625 2.59375q0.234375 0.96875 0.984375 1.53125q0.75 0.546875 1.859375 0.546875q1.109375 0 2.078125 -0.5625q0.96875 -0.5625 1.375 -1.53125q0.40625 -0.984375 0.40625 -2.84375l0 -7.78125l2.453125 0l0 14.515625l-2.203125 0zm15.994141 -4.671875l2.546875 0.3125q-0.59375 2.21875 -2.234375 3.453125q-1.625 1.234375 -4.15625 1.234375q-3.171875 0 -5.046875 -1.953125q-1.859375 -1.96875 -1.859375 -5.515625q0 -3.65625 1.875 -5.671875q1.890625 -2.03125 4.90625 -2.03125q2.90625 0 4.75 1.984375q1.84375 1.96875 1.84375 5.578125q0 0.21875 -0.015625 0.65625l-10.828125 0q0.140625 2.390625 1.359375 3.65625q1.21875 1.265625 3.03125 1.265625q1.359375 0 2.3125 -0.703125q0.953125 -0.71875 1.515625 -2.265625zm-8.078125 -3.984375l8.109375 0q-0.15625 -1.828125 -0.921875 -2.75q-1.1875 -1.421875 -3.0625 -1.421875q-1.6875 0 -2.84375 1.140625q-1.15625 1.125 -1.28125 3.03125zm15.025391 3.671875l-0.75 -10.609375l0 -4.453125l3.046875 0l0 4.453125l-0.703125 10.609375l-1.59375 0zm-0.640625 4.984375l0 -2.796875l2.828125 0l0 2.796875l-2.828125 0z" fill-rule="nonzero"/><path fill="#f6b26b" d="m151.49193 310.76642l22.472443 -22.472443l0 11.236206l55.66928 0l0 22.472443l-55.66928 0l0 11.236206z" fill-rule="evenodd"/><path stroke="#000000" stroke-width="2.0" stroke-linejoin="round" stroke-linecap="butt" d="m151.49193 310.76642l22.472443 -22.472443l0 11.236206l55.66928 0l0 22.472443l-55.66928 0l0 11.236206z" fill-rule="evenodd"/><path fill="#f6b26b" d="m126.58924 209.76903l22.472435 -22.472443l0 11.236221l79.60631 0l0 22.472443l-79.60631 0l0 11.236221z" fill-rule="evenodd"/><path stroke="#000000" stroke-width="2.0" stroke-linejoin="round" stroke-linecap="butt" d="m126.58924 209.76903l22.472435 -22.472443l0 11.236221l79.60631 0l0 22.472443l-79.60631 0l0 11.236221z" fill-rule="evenodd"/><path fill="#6aa84f" d="m581.3163 86.77165l6.708679 0l0 48.72441l-6.708679 0z" fill-rule="evenodd"/><path fill="#6aa84f" d="m491.39502 86.77165l7.685028 0l0 48.72441l-7.685028 0z" fill-rule="evenodd"/><path fill="#6aa84f" d="m401.47375 86.77165l9.606293 0l0 48.72441l-9.606293 0z" fill-rule="evenodd"/><path fill="#6aa84f" d="m221.63124 86.77165l5.7637787 0l0 48.72441l-5.7637787 0z" fill-rule="evenodd"/><path fill="#6aa84f" d="m41.790745 86.77165l11.527557 0l0 48.72441l-11.527557 0z" fill-rule="evenodd"/><path fill="#6aa84f" d="m131.70998 86.77165l7.6850433 0l0 48.72441l-7.6850433 0z" fill-rule="evenodd"/><path fill="#6aa84f" d="m311.5525 86.77165l18.236237 0l0 48.72441l-18.236237 0z" fill-rule="evenodd"/><path fill="#6aa84f" d="m103.24016 186.55643l11.527557 0l0 48.72441l-11.527557 0z" fill-rule="evenodd"/><path fill="#000000" fill-opacity="0.0" d="m110.10761 186.49344l-0.15747833 48.850388" fill-rule="evenodd"/><path stroke="#000000" stroke-width="3.0" stroke-linejoin="round" stroke-linecap="butt" d="m110.10761 186.49344l-0.15747833 48.850388" fill-rule="evenodd"/><path fill="#6aa84f" d="m95.39764 186.55643l7.6850433 0l0 48.72441l-7.6850433 0z" fill-rule="evenodd"/><path fill="#000000" fill-opacity="0.0" d="m103.242 186.49344l-0.15748596 48.850388" fill-rule="evenodd"/><path stroke="#000000" stroke-width="3.0" stroke-linejoin="round" stroke-linecap="butt" d="m103.242 186.49344l-0.15748596 48.850388" fill-rule="evenodd"/><path fill="#6aa84f" d="m85.63386 186.55643l9.6063 0l0 48.72441l-9.6063 0z" fill-rule="evenodd"/><path fill="#000000" fill-opacity="0.0" d="m95.39764 186.49344l-0.15747833 48.850388" fill-rule="evenodd"/><path stroke="#000000" stroke-width="3.0" stroke-linejoin="round" stroke-linecap="butt" d="m95.39764 186.49344l-0.15747833 48.850388" fill-rule="evenodd"/><path fill="#6aa84f" d="m67.238846 186.55643l18.236221 0l0 48.72441l-18.236221 0z" fill-rule="evenodd"/><path fill="#000000" fill-opacity="0.0" d="m85.63386 186.49344l-0.15747833 48.850388" fill-rule="evenodd"/><path stroke="#000000" stroke-width="3.0" stroke-linejoin="round" stroke-linecap="butt" d="m85.63386 186.49344l-0.15747833 48.850388" fill-rule="evenodd"/><path fill="#6aa84f" d="m61.316273 186.55643l5.7637825 0l0 48.72441l-5.7637825 0z" fill-rule="evenodd"/><path fill="#000000" fill-opacity="0.0" d="m67.238846 186.49344l-0.15747833 48.850388" fill-rule="evenodd"/><path stroke="#000000" stroke-width="3.0" stroke-linejoin="round" stroke-linecap="butt" d="m67.238846 186.49344l-0.15747833 48.850388" fill-rule="evenodd"/><path fill="#6aa84f" d="m53.473755 186.55643l7.6850395 0l0 48.72441l-7.6850395 0z" fill-rule="evenodd"/><path fill="#000000" fill-opacity="0.0" d="m61.317585 186.49344l-0.15747833 48.850388" fill-rule="evenodd"/><path stroke="#000000" stroke-width="3.0" stroke-linejoin="round" stroke-linecap="butt" d="m61.317585 186.49344l-0.15747833 48.850388" fill-rule="evenodd"/><path fill="#6aa84f" d="m41.790745 186.61942l11.527557 0l0 48.72441l-11.527557 0z" fill-rule="evenodd"/><path fill="#000000" fill-opacity="0.0" d="m53.475067 186.49344l-0.15748215 48.850388" fill-rule="evenodd"/><path stroke="#000000" stroke-width="3.0" stroke-linejoin="round" stroke-linecap="butt" d="m53.475067 186.49344l-0.15748215 48.850388" fill-rule="evenodd"/><path fill="#000000" fill-opacity="0.0" d="m41.788715 86.77165l89.921265 0l0 48.72441l-89.921265 0z" fill-rule="evenodd"/><path stroke="#000000" stroke-width="3.0" stroke-linejoin="round" stroke-linecap="butt" d="m41.788715 86.77165l89.921265 0l0 48.72441l-89.921265 0z" fill-rule="evenodd"/><path fill="#000000" fill-opacity="0.0" d="m48.859894 90.125984l80.85039 0l0 42.015755l-80.85039 0z" fill-rule="evenodd"/><path fill="#000000" d="m64.81302 117.04598l-1.640625 0l0 -10.453125q-0.59375 0.5625 -1.5625 1.140625q-0.953125 0.5625 -1.71875 0.84375l0 -1.59375q1.375 -0.640625 2.40625 -1.5625q1.03125 -0.921875 1.453125 -1.78125l1.0625 0l0 13.40625zm12.813217 -1.578125l0 1.578125l-8.828125 0q-0.015625 -0.59375 0.1875 -1.140625q0.34375 -0.90625 1.078125 -1.78125q0.75 -0.875 2.15625 -2.015625q2.171875 -1.78125 2.9375 -2.828125q0.765625 -1.046875 0.765625 -1.96875q0 -0.984375 -0.703125 -1.640625q-0.6875 -0.671875 -1.8125 -0.671875q-1.1875 0 -1.90625 0.71875q-0.703125 0.703125 -0.703125 1.953125l-1.6875 -0.171875q0.171875 -1.890625 1.296875 -2.875q1.140625 -0.984375 3.03125 -0.984375q1.921875 0 3.046875 1.0625q1.125 1.0625 1.125 2.640625q0 0.796875 -0.328125 1.578125q-0.328125 0.78125 -1.09375 1.640625q-0.75 0.84375 -2.53125 2.34375q-1.46875 1.234375 -1.890625 1.6875q-0.421875 0.4375 -0.6875 0.875l6.546875 0zm4.281967 -5.65625q-1.015625 -0.375 -1.515625 -1.0625q-0.484375 -0.703125 -0.484375 -1.671875q0 -1.453125 1.046875 -2.4375q1.046875 -1.0 2.78125 -1.0q1.75 0 2.8125 1.015625q1.078125 1.015625 1.078125 2.46875q0 0.9375 -0.5 1.625q-0.484375 0.6875 -1.46875 1.0625q1.21875 0.390625 1.859375 1.28125q0.65625 0.890625 0.65625 2.140625q0 1.703125 -1.21875 2.875q-1.21875 1.171875 -3.1875 1.171875q-1.984375 0 -3.203125 -1.171875q-1.203125 -1.171875 -1.203125 -2.921875q0 -1.3125 0.65625 -2.1875q0.671875 -0.875 1.890625 -1.1875zm-0.328125 -2.78125q0 0.9375 0.609375 1.546875q0.609375 0.59375 1.59375 0.59375q0.9375 0 1.546875 -0.59375q0.609375 -0.59375 0.609375 -1.453125q0 -0.90625 -0.625 -1.515625q-0.625 -0.625 -1.5625 -0.625q-0.9375 0 -1.5625 0.609375q-0.609375 0.59375 -0.609375 1.4375zm-0.53125 6.15625q0 0.703125 0.328125 1.359375q0.34375 0.65625 1.0 1.015625q0.65625 0.359375 1.40625 0.359375q1.171875 0 1.9375 -0.75q0.765625 -0.75 0.765625 -1.921875q0 -1.1875 -0.796875 -1.953125q-0.78125 -0.78125 -1.953125 -0.78125q-1.15625 0 -1.921875 0.765625q-0.765625 0.765625 -0.765625 1.90625zm14.480896 3.859375l0 -13.359375l1.78125 0l0 6.625l6.625 -6.625l2.390625 0l-5.59375 5.421875l5.84375 7.9375l-2.328125 0l-4.765625 -6.765625l-2.171875 2.140625l0 4.625l-1.78125 0zm12.443573 0l0 -13.359375l5.015625 0q1.53125 0 2.453125 0.40625q0.921875 0.40625 1.4375 1.25q0.53125 0.84375 0.53125 1.765625q0 0.859375 -0.46875 1.625q-0.453125 0.75 -1.390625 1.203125q1.203125 0.359375 1.859375 1.21875q0.65625 0.859375 0.65625 2.015625q0 0.9375 -0.40625 1.75q-0.390625 0.796875 -0.984375 1.234375q-0.578125 0.4375 -1.453125 0.671875q-0.875 0.21875 -2.15625 0.21875l-5.09375 0zm1.78125 -7.75l2.875 0q1.1875 0 1.6875 -0.140625q0.671875 -0.203125 1.015625 -0.671875q0.34375 -0.46875 0.34375 -1.171875q0 -0.65625 -0.328125 -1.15625q-0.3125 -0.515625 -0.90625 -0.703125q-0.59375 -0.1875 -2.03125 -0.1875l-2.65625 0l0 4.03125zm0 6.171875l3.3125 0q0.859375 0 1.203125 -0.0625q0.609375 -0.109375 1.015625 -0.359375q0.421875 -0.265625 0.6875 -0.75q0.265625 -0.484375 0.265625 -1.125q0 -0.75 -0.390625 -1.296875q-0.375 -0.546875 -1.0625 -0.765625q-0.671875 -0.234375 -1.953125 -0.234375l-3.078125 0l0 4.59375z" fill-rule="nonzero"/><path fill="#000000" fill-opacity="0.0" d="m131.70998 86.77165l89.921265 0l0 48.72441l-89.921265 0z" fill-rule="evenodd"/><path stroke="#000000" stroke-width="3.0" stroke-linejoin="round" stroke-linecap="butt" d="m131.70998 86.77165l89.921265 0l0 48.72441l-89.921265 0z" fill-rule="evenodd"/><path fill="#000000" fill-opacity="0.0" d="m138.78116 90.125984l80.85039 0l0 42.015755l-80.85039 0z" fill-rule="evenodd"/><path fill="#000000" d="m154.73428 117.04598l-1.640625 0l0 -10.453125q-0.59375 0.5625 -1.5625 1.140625q-0.953125 0.5625 -1.71875 0.84375l0 -1.59375q1.375 -0.640625 2.40625 -1.5625q1.03125 -0.921875 1.453125 -1.78125l1.0625 0l0 13.40625zm12.813217 -1.578125l0 1.578125l-8.828125 0q-0.015625 -0.59375 0.1875 -1.140625q0.34375 -0.90625 1.078125 -1.78125q0.75 -0.875 2.15625 -2.015625q2.171875 -1.78125 2.9375 -2.828125q0.765625 -1.046875 0.765625 -1.96875q0 -0.984375 -0.703125 -1.640625q-0.6875 -0.671875 -1.8125 -0.671875q-1.1875 0 -1.90625 0.71875q-0.703125 0.703125 -0.703125 1.953125l-1.6875 -0.171875q0.171875 -1.890625 1.296875 -2.875q1.140625 -0.984375 3.03125 -0.984375q1.921875 0 3.046875 1.0625q1.125 1.0625 1.125 2.640625q0 0.796875 -0.328125 1.578125q-0.328125 0.78125 -1.09375 1.640625q-0.75 0.84375 -2.53125 2.34375q-1.46875 1.234375 -1.890625 1.6875q-0.421875 0.4375 -0.6875 0.875l6.546875 0zm4.281967 -5.65625q-1.015625 -0.375 -1.515625 -1.0625q-0.484375 -0.703125 -0.484375 -1.671875q0 -1.453125 1.046875 -2.4375q1.046875 -1.0 2.78125 -1.0q1.75 0 2.8125 1.015625q1.078125 1.015625 1.078125 2.46875q0 0.9375 -0.5 1.625q-0.484375 0.6875 -1.46875 1.0625q1.21875 0.390625 1.859375 1.28125q0.65625 0.890625 0.65625 2.140625q0 1.703125 -1.21875 2.875q-1.21875 1.171875 -3.1875 1.171875q-1.984375 0 -3.203125 -1.171875q-1.203125 -1.171875 -1.203125 -2.921875q0 -1.3125 0.65625 -2.1875q0.671875 -0.875 1.890625 -1.1875zm-0.328125 -2.78125q0 0.9375 0.609375 1.546875q0.609375 0.59375 1.59375 0.59375q0.9375 0 1.546875 -0.59375q0.609375 -0.59375 0.609375 -1.453125q0 -0.90625 -0.625 -1.515625q-0.625 -0.625 -1.5625 -0.625q-0.9375 0 -1.5625 0.609375q-0.609375 0.59375 -0.609375 1.4375zm-0.53125 6.15625q0 0.703125 0.328125 1.359375q0.34375 0.65625 1.0 1.015625q0.65625 0.359375 1.40625 0.359375q1.171875 0 1.9375 -0.75q0.765625 -0.75 0.765625 -1.921875q0 -1.1875 -0.796875 -1.953125q-0.78125 -0.78125 -1.953125 -0.78125q-1.15625 0 -1.921875 0.765625q-0.765625 0.765625 -0.765625 1.90625zm14.480896 3.859375l0 -13.359375l1.78125 0l0 6.625l6.625 -6.625l2.390625 0l-5.59375 5.421875l5.84375 7.9375l-2.328125 0l-4.765625 -6.765625l-2.171875 2.140625l0 4.625l-1.78125 0zm12.443573 0l0 -13.359375l5.015625 0q1.53125 0 2.453125 0.40625q0.921875 0.40625 1.4375 1.25q0.53125 0.84375 0.53125 1.765625q0 0.859375 -0.46875 1.625q-0.453125 0.75 -1.390625 1.203125q1.203125 0.359375 1.859375 1.21875q0.65625 0.859375 0.65625 2.015625q0 0.9375 -0.40625 1.75q-0.390625 0.796875 -0.984375 1.234375q-0.578125 0.4375 -1.453125 0.671875q-0.875 0.21875 -2.15625 0.21875l-5.09375 0zm1.78125 -7.75l2.875 0q1.1875 0 1.6875 -0.140625q0.671875 -0.203125 1.015625 -0.671875q0.34375 -0.46875 0.34375 -1.171875q0 -0.65625 -0.328125 -1.15625q-0.3125 -0.515625 -0.90625 -0.703125q-0.59375 -0.1875 -2.03125 -0.1875l-2.65625 0l0 4.03125zm0 6.171875l3.3125 0q0.859375 0 1.203125 -0.0625q0.609375 -0.109375 1.015625 -0.359375q0.421875 -0.265625 0.6875 -0.75q0.265625 -0.484375 0.265625 -1.125q0 -0.75 -0.390625 -1.296875q-0.375 -0.546875 -1.0625 -0.765625q-0.671875 -0.234375 -1.953125 -0.234375l-3.078125 0l0 4.59375z" fill-rule="nonzero"/><path fill="#000000" fill-opacity="0.0" d="m221.63124 86.77165l89.92125 0l0 48.72441l-89.92125 0z" fill-rule="evenodd"/><path stroke="#000000" stroke-width="3.0" stroke-linejoin="round" stroke-linecap="butt" d="m221.63124 86.77165l89.92125 0l0 48.72441l-89.92125 0z" fill-rule="evenodd"/><path fill="#000000" fill-opacity="0.0" d="m228.70241 90.125984l80.85039 0l0 42.015755l-80.85039 0z" fill-rule="evenodd"/><path fill="#000000" d="m244.65553 117.04598l-1.640625 0l0 -10.453125q-0.59375 0.5625 -1.5625 1.140625q-0.953125 0.5625 -1.71875 0.84375l0 -1.59375q1.375 -0.640625 2.40625 -1.5625q1.03125 -0.921875 1.453125 -1.78125l1.0625 0l0 13.40625zm12.813217 -1.578125l0 1.578125l-8.828125 0q-0.015625 -0.59375 0.1875 -1.140625q0.34375 -0.90625 1.078125 -1.78125q0.75 -0.875 2.15625 -2.015625q2.171875 -1.78125 2.9375 -2.828125q0.765625 -1.046875 0.765625 -1.96875q0 -0.984375 -0.703125 -1.640625q-0.6875 -0.671875 -1.8125 -0.671875q-1.1875 0 -1.90625 0.71875q-0.703125 0.703125 -0.703125 1.953125l-1.6875 -0.171875q0.171875 -1.890625 1.296875 -2.875q1.140625 -0.984375 3.03125 -0.984375q1.921875 0 3.046875 1.0625q1.125 1.0625 1.125 2.640625q0 0.796875 -0.328125 1.578125q-0.328125 0.78125 -1.09375 1.640625q-0.75 0.84375 -2.53125 2.34375q-1.46875 1.234375 -1.890625 1.6875q-0.421875 0.4375 -0.6875 0.875l6.546875 0zm4.2819824 -5.65625q-1.015625 -0.375 -1.515625 -1.0625q-0.484375 -0.703125 -0.484375 -1.671875q0 -1.453125 1.046875 -2.4375q1.046875 -1.0 2.78125 -1.0q1.75 0 2.8125 1.015625q1.078125 1.015625 1.078125 2.46875q0 0.9375 -0.5 1.625q-0.484375 0.6875 -1.46875 1.0625q1.21875 0.390625 1.859375 1.28125q0.65625 0.890625 0.65625 2.140625q0 1.703125 -1.21875 2.875q-1.21875 1.171875 -3.1875 1.171875q-1.984375 0 -3.203125 -1.171875q-1.203125 -1.171875 -1.203125 -2.921875q0 -1.3125 0.65625 -2.1875q0.671875 -0.875 1.890625 -1.1875zm-0.328125 -2.78125q0 0.9375 0.609375 1.546875q0.609375 0.59375 1.59375 0.59375q0.9375 0 1.546875 -0.59375q0.609375 -0.59375 0.609375 -1.453125q0 -0.90625 -0.625 -1.515625q-0.625 -0.625 -1.5625 -0.625q-0.9375 0 -1.5625 0.609375q-0.609375 0.59375 -0.609375 1.4375zm-0.53125 6.15625q0 0.703125 0.328125 1.359375q0.34375 0.65625 1.0 1.015625q0.65625 0.359375 1.40625 0.359375q1.171875 0 1.9375 -0.75q0.765625 -0.75 0.765625 -1.921875q0 -1.1875 -0.796875 -1.953125q-0.78125 -0.78125 -1.953125 -0.78125q-1.15625 0 -1.921875 0.765625q-0.765625 0.765625 -0.765625 1.90625zm14.480896 3.859375l0 -13.359375l1.78125 0l0 6.625l6.625 -6.625l2.390625 0l-5.59375 5.421875l5.84375 7.9375l-2.328125 0l-4.765625 -6.765625l-2.171875 2.140625l0 4.625l-1.78125 0zm12.443573 0l0 -13.359375l5.015625 0q1.53125 0 2.453125 0.40625q0.921875 0.40625 1.4375 1.25q0.53125 0.84375 0.53125 1.765625q0 0.859375 -0.46875 1.625q-0.453125 0.75 -1.390625 1.203125q1.203125 0.359375 1.859375 1.21875q0.65625 0.859375 0.65625 2.015625q0 0.9375 -0.40625 1.75q-0.390625 0.796875 -0.984375 1.234375q-0.578125 0.4375 -1.453125 0.671875q-0.875 0.21875 -2.15625 0.21875l-5.09375 0zm1.78125 -7.75l2.875 0q1.1875 0 1.6875 -0.140625q0.671875 -0.203125 1.015625 -0.671875q0.34375 -0.46875 0.34375 -1.171875q0 -0.65625 -0.328125 -1.15625q-0.3125 -0.515625 -0.90625 -0.703125q-0.59375 -0.1875 -2.03125 -0.1875l-2.65625 0l0 4.03125zm0 6.171875l3.3125 0q0.859375 0 1.203125 -0.0625q0.609375 -0.109375 1.015625 -0.359375q0.421875 -0.265625 0.6875 -0.75q0.265625 -0.484375 0.265625 -1.125q0 -0.75 -0.390625 -1.296875q-0.375 -0.546875 -1.0625 -0.765625q-0.671875 -0.234375 -1.953125 -0.234375l-3.078125 0l0 4.59375z" fill-rule="nonzero"/><path fill="#000000" fill-opacity="0.0" d="m311.5525 86.77165l89.921265 0l0 48.72441l-89.921265 0z" fill-rule="evenodd"/><path stroke="#000000" stroke-width="3.0" stroke-linejoin="round" stroke-linecap="butt" d="m311.5525 86.77165l89.921265 0l0 48.72441l-89.921265 0z" fill-rule="evenodd"/><path fill="#000000" fill-opacity="0.0" d="m318.6237 90.125984l80.85037 0l0 42.015755l-80.85037 0z" fill-rule="evenodd"/><path fill="#000000" d="m334.5768 117.04598l-1.640625 0l0 -10.453125q-0.59375 0.5625 -1.5625 1.140625q-0.953125 0.5625 -1.71875 0.84375l0 -1.59375q1.375 -0.640625 2.40625 -1.5625q1.03125 -0.921875 1.453125 -1.78125l1.0625 0l0 13.40625zm12.813202 -1.578125l0 1.578125l-8.828125 0q-0.015625 -0.59375 0.1875 -1.140625q0.34375 -0.90625 1.078125 -1.78125q0.75 -0.875 2.15625 -2.015625q2.171875 -1.78125 2.9375 -2.828125q0.765625 -1.046875 0.765625 -1.96875q0 -0.984375 -0.703125 -1.640625q-0.6875 -0.671875 -1.8125 -0.671875q-1.1875 0 -1.90625 0.71875q-0.703125 0.703125 -0.703125 1.953125l-1.6875 -0.171875q0.171875 -1.890625 1.296875 -2.875q1.140625 -0.984375 3.03125 -0.984375q1.921875 0 3.046875 1.0625q1.125 1.0625 1.125 2.640625q0 0.796875 -0.328125 1.578125q-0.328125 0.78125 -1.09375 1.640625q-0.75 0.84375 -2.53125 2.34375q-1.46875 1.234375 -1.890625 1.6875q-0.421875 0.4375 -0.6875 0.875l6.546875 0zm4.2819824 -5.65625q-1.015625 -0.375 -1.515625 -1.0625q-0.484375 -0.703125 -0.484375 -1.671875q0 -1.453125 1.046875 -2.4375q1.046875 -1.0 2.78125 -1.0q1.75 0 2.8125 1.015625q1.078125 1.015625 1.078125 2.46875q0 0.9375 -0.5 1.625q-0.484375 0.6875 -1.46875 1.0625q1.21875 0.390625 1.859375 1.28125q0.65625 0.890625 0.65625 2.140625q0 1.703125 -1.21875 2.875q-1.21875 1.171875 -3.1875 1.171875q-1.984375 0 -3.203125 -1.171875q-1.203125 -1.171875 -1.203125 -2.921875q0 -1.3125 0.65625 -2.1875q0.671875 -0.875 1.890625 -1.1875zm-0.328125 -2.78125q0 0.9375 0.609375 1.546875q0.609375 0.59375 1.59375 0.59375q0.9375 0 1.546875 -0.59375q0.609375 -0.59375 0.609375 -1.453125q0 -0.90625 -0.625 -1.515625q-0.625 -0.625 -1.5625 -0.625q-0.9375 0 -1.5625 0.609375q-0.609375 0.59375 -0.609375 1.4375zm-0.53125 6.15625q0 0.703125 0.328125 1.359375q0.34375 0.65625 1.0 1.015625q0.65625 0.359375 1.40625 0.359375q1.171875 0 1.9375 -0.75q0.765625 -0.75 0.765625 -1.921875q0 -1.1875 -0.796875 -1.953125q-0.78125 -0.78125 -1.953125 -0.78125q-1.15625 0 -1.921875 0.765625q-0.765625 0.765625 -0.765625 1.90625zm14.480896 3.859375l0 -13.359375l1.78125 0l0 6.625l6.625 -6.625l2.390625 0l-5.59375 5.421875l5.84375 7.9375l-2.328125 0l-4.765625 -6.765625l-2.171875 2.140625l0 4.625l-1.78125 0zm12.443573 0l0 -13.359375l5.015625 0q1.53125 0 2.453125 0.40625q0.921875 0.40625 1.4375 1.25q0.53125 0.84375 0.53125 1.765625q0 0.859375 -0.46875 1.625q-0.453125 0.75 -1.390625 1.203125q1.203125 0.359375 1.859375 1.21875q0.65625 0.859375 0.65625 2.015625q0 0.9375 -0.40625 1.75q-0.390625 0.796875 -0.984375 1.234375q-0.578125 0.4375 -1.453125 0.671875q-0.875 0.21875 -2.15625 0.21875l-5.09375 0zm1.78125 -7.75l2.875 0q1.1875 0 1.6875 -0.140625q0.671875 -0.203125 1.015625 -0.671875q0.34375 -0.46875 0.34375 -1.171875q0 -0.65625 -0.328125 -1.15625q-0.3125 -0.515625 -0.90625 -0.703125q-0.59375 -0.1875 -2.03125 -0.1875l-2.65625 0l0 4.03125zm0 6.171875l3.3125 0q0.859375 0 1.203125 -0.0625q0.609375 -0.109375 1.015625 -0.359375q0.421875 -0.265625 0.6875 -0.75q0.265625 -0.484375 0.265625 -1.125q0 -0.75 -0.390625 -1.296875q-0.375 -0.546875 -1.0625 -0.765625q-0.671875 -0.234375 -1.953125 -0.234375l-3.078125 0l0 4.59375z" fill-rule="nonzero"/><path fill="#000000" fill-opacity="0.0" d="m401.47375 86.77165l89.921265 0l0 48.72441l-89.921265 0z" fill-rule="evenodd"/><path stroke="#000000" stroke-width="3.0" stroke-linejoin="round" stroke-linecap="butt" d="m401.47375 86.77165l89.921265 0l0 48.72441l-89.921265 0z" fill-rule="evenodd"/><path fill="#000000" fill-opacity="0.0" d="m408.54492 90.125984l80.8504 0l0 42.015755l-80.8504 0z" fill-rule="evenodd"/><path fill="#000000" d="m424.49805 117.04598l-1.640625 0l0 -10.453125q-0.59375 0.5625 -1.5625 1.140625q-0.953125 0.5625 -1.71875 0.84375l0 -1.59375q1.375 -0.640625 2.40625 -1.5625q1.03125 -0.921875 1.453125 -1.78125l1.0625 0l0 13.40625zm12.813232 -1.578125l0 1.578125l-8.828125 0q-0.015625 -0.59375 0.1875 -1.140625q0.34375 -0.90625 1.078125 -1.78125q0.75 -0.875 2.15625 -2.015625q2.171875 -1.78125 2.9375 -2.828125q0.765625 -1.046875 0.765625 -1.96875q0 -0.984375 -0.703125 -1.640625q-0.6875 -0.671875 -1.8125 -0.671875q-1.1875 0 -1.90625 0.71875q-0.703125 0.703125 -0.703125 1.953125l-1.6875 -0.171875q0.171875 -1.890625 1.296875 -2.875q1.140625 -0.984375 3.03125 -0.984375q1.921875 0 3.046875 1.0625q1.125 1.0625 1.125 2.640625q0 0.796875 -0.328125 1.578125q-0.328125 0.78125 -1.09375 1.640625q-0.75 0.84375 -2.53125 2.34375q-1.46875 1.234375 -1.890625 1.6875q-0.421875 0.4375 -0.6875 0.875l6.546875 0zm4.281952 -5.65625q-1.015625 -0.375 -1.515625 -1.0625q-0.484375 -0.703125 -0.484375 -1.671875q0 -1.453125 1.046875 -2.4375q1.046875 -1.0 2.78125 -1.0q1.75 0 2.8125 1.015625q1.078125 1.015625 1.078125 2.46875q0 0.9375 -0.5 1.625q-0.484375 0.6875 -1.46875 1.0625q1.21875 0.390625 1.859375 1.28125q0.65625 0.890625 0.65625 2.140625q0 1.703125 -1.21875 2.875q-1.21875 1.171875 -3.1875 1.171875q-1.984375 0 -3.203125 -1.171875q-1.203125 -1.171875 -1.203125 -2.921875q0 -1.3125 0.65625 -2.1875q0.671875 -0.875 1.890625 -1.1875zm-0.328125 -2.78125q0 0.9375 0.609375 1.546875q0.609375 0.59375 1.59375 0.59375q0.9375 0 1.546875 -0.59375q0.609375 -0.59375 0.609375 -1.453125q0 -0.90625 -0.625 -1.515625q-0.625 -0.625 -1.5625 -0.625q-0.9375 0 -1.5625 0.609375q-0.609375 0.59375 -0.609375 1.4375zm-0.53125 6.15625q0 0.703125 0.328125 1.359375q0.34375 0.65625 1.0 1.015625q0.65625 0.359375 1.40625 0.359375q1.171875 0 1.9375 -0.75q0.765625 -0.75 0.765625 -1.921875q0 -1.1875 -0.796875 -1.953125q-0.78125 -0.78125 -1.953125 -0.78125q-1.15625 0 -1.921875 0.765625q-0.765625 0.765625 -0.765625 1.90625zm14.480896 3.859375l0 -13.359375l1.78125 0l0 6.625l6.625 -6.625l2.390625 0l-5.59375 5.421875l5.84375 7.9375l-2.328125 0l-4.765625 -6.765625l-2.171875 2.140625l0 4.625l-1.78125 0zm12.443573 0l0 -13.359375l5.015625 0q1.53125 0 2.453125 0.40625q0.921875 0.40625 1.4375 1.25q0.53125 0.84375 0.53125 1.765625q0 0.859375 -0.46875 1.625q-0.453125 0.75 -1.390625 1.203125q1.203125 0.359375 1.859375 1.21875q0.65625 0.859375 0.65625 2.015625q0 0.9375 -0.40625 1.75q-0.390625 0.796875 -0.984375 1.234375q-0.578125 0.4375 -1.453125 0.671875q-0.875 0.21875 -2.15625 0.21875l-5.09375 0zm1.78125 -7.75l2.875 0q1.1875 0 1.6875 -0.140625q0.671875 -0.203125 1.015625 -0.671875q0.34375 -0.46875 0.34375 -1.171875q0 -0.65625 -0.328125 -1.15625q-0.3125 -0.515625 -0.90625 -0.703125q-0.59375 -0.1875 -2.03125 -0.1875l-2.65625 0l0 4.03125zm0 6.171875l3.3125 0q0.859375 0 1.203125 -0.0625q0.609375 -0.109375 1.015625 -0.359375q0.421875 -0.265625 0.6875 -0.75q0.265625 -0.484375 0.265625 -1.125q0 -0.75 -0.390625 -1.296875q-0.375 -0.546875 -1.0625 -0.765625q-0.671875 -0.234375 -1.953125 -0.234375l-3.078125 0l0 4.59375z" fill-rule="nonzero"/><path fill="#000000" fill-opacity="0.0" d="m491.39502 86.77165l89.921265 0l0 48.72441l-89.921265 0z" fill-rule="evenodd"/><path stroke="#000000" stroke-width="3.0" stroke-linejoin="round" stroke-linecap="butt" d="m491.39502 86.77165l89.921265 0l0 48.72441l-89.921265 0z" fill-rule="evenodd"/><path fill="#000000" fill-opacity="0.0" d="m498.4662 90.125984l80.8504 0l0 42.015755l-80.8504 0z" fill-rule="evenodd"/><path fill="#000000" d="m514.4193 117.04598l-1.640625 0l0 -10.453125q-0.59375 0.5625 -1.5625 1.140625q-0.953125 0.5625 -1.71875 0.84375l0 -1.59375q1.375 -0.640625 2.40625 -1.5625q1.03125 -0.921875 1.453125 -1.78125l1.0625 0l0 13.40625zm12.813232 -1.578125l0 1.578125l-8.828125 0q-0.015625 -0.59375 0.1875 -1.140625q0.34375 -0.90625 1.078125 -1.78125q0.75 -0.875 2.15625 -2.015625q2.171875 -1.78125 2.9375 -2.828125q0.765625 -1.046875 0.765625 -1.96875q0 -0.984375 -0.703125 -1.640625q-0.6875 -0.671875 -1.8125 -0.671875q-1.1875 0 -1.90625 0.71875q-0.703125 0.703125 -0.703125 1.953125l-1.6875 -0.171875q0.171875 -1.890625 1.296875 -2.875q1.140625 -0.984375 3.03125 -0.984375q1.921875 0 3.046875 1.0625q1.125 1.0625 1.125 2.640625q0 0.796875 -0.328125 1.578125q-0.328125 0.78125 -1.09375 1.640625q-0.75 0.84375 -2.53125 2.34375q-1.46875 1.234375 -1.890625 1.6875q-0.421875 0.4375 -0.6875 0.875l6.546875 0zm4.2819824 -5.65625q-1.015625 -0.375 -1.515625 -1.0625q-0.484375 -0.703125 -0.484375 -1.671875q0 -1.453125 1.046875 -2.4375q1.046875 -1.0 2.78125 -1.0q1.75 0 2.8125 1.015625q1.078125 1.015625 1.078125 2.46875q0 0.9375 -0.5 1.625q-0.484375 0.6875 -1.46875 1.0625q1.21875 0.390625 1.859375 1.28125q0.65625 0.890625 0.65625 2.140625q0 1.703125 -1.21875 2.875q-1.21875 1.171875 -3.1875 1.171875q-1.984375 0 -3.203125 -1.171875q-1.203125 -1.171875 -1.203125 -2.921875q0 -1.3125 0.65625 -2.1875q0.671875 -0.875 1.890625 -1.1875zm-0.328125 -2.78125q0 0.9375 0.609375 1.546875q0.609375 0.59375 1.59375 0.59375q0.9375 0 1.546875 -0.59375q0.609375 -0.59375 0.609375 -1.453125q0 -0.90625 -0.625 -1.515625q-0.625 -0.625 -1.5625 -0.625q-0.9375 0 -1.5625 0.609375q-0.609375 0.59375 -0.609375 1.4375zm-0.53125 6.15625q0 0.703125 0.328125 1.359375q0.34375 0.65625 1.0 1.015625q0.65625 0.359375 1.40625 0.359375q1.171875 0 1.9375 -0.75q0.765625 -0.75 0.765625 -1.921875q0 -1.1875 -0.796875 -1.953125q-0.78125 -0.78125 -1.953125 -0.78125q-1.15625 0 -1.921875 0.765625q-0.765625 0.765625 -0.765625 1.90625zm14.480896 3.859375l0 -13.359375l1.78125 0l0 6.625l6.625 -6.625l2.390625 0l-5.59375 5.421875l5.84375 7.9375l-2.328125 0l-4.765625 -6.765625l-2.171875 2.140625l0 4.625l-1.78125 0zm12.4435425 0l0 -13.359375l5.015625 0q1.53125 0 2.453125 0.40625q0.921875 0.40625 1.4375 1.25q0.53125 0.84375 0.53125 1.765625q0 0.859375 -0.46875 1.625q-0.453125 0.75 -1.390625 1.203125q1.203125 0.359375 1.859375 1.21875q0.65625 0.859375 0.65625 2.015625q0 0.9375 -0.40625 1.75q-0.390625 0.796875 -0.984375 1.234375q-0.578125 0.4375 -1.453125 0.671875q-0.875 0.21875 -2.15625 0.21875l-5.09375 0zm1.78125 -7.75l2.875 0q1.1875 0 1.6875 -0.140625q0.671875 -0.203125 1.015625 -0.671875q0.34375 -0.46875 0.34375 -1.171875q0 -0.65625 -0.328125 -1.15625q-0.3125 -0.515625 -0.90625 -0.703125q-0.59375 -0.1875 -2.03125 -0.1875l-2.65625 0l0 4.03125zm0 6.171875l3.3125 0q0.859375 0 1.203125 -0.0625q0.609375 -0.109375 1.015625 -0.359375q0.421875 -0.265625 0.6875 -0.75q0.265625 -0.484375 0.265625 -1.125q0 -0.75 -0.390625 -1.296875q-0.375 -0.546875 -1.0625 -0.765625q-0.671875 -0.234375 -1.953125 -0.234375l-3.078125 0l0 4.59375z" fill-rule="nonzero"/><path fill="#000000" fill-opacity="0.0" d="m581.3163 86.77165l89.921265 0l0 48.72441l-89.921265 0z" fill-rule="evenodd"/><path stroke="#000000" stroke-width="3.0" stroke-linejoin="round" stroke-linecap="butt" d="m581.3163 86.77165l89.921265 0l0 48.72441l-89.921265 0z" fill-rule="evenodd"/><path fill="#000000" fill-opacity="0.0" d="m588.38745 90.125984l80.8504 0l0 42.015755l-80.8504 0z" fill-rule="evenodd"/><path fill="#000000" d="m604.3406 117.04598l-1.640625 0l0 -10.453125q-0.59375 0.5625 -1.5625 1.140625q-0.953125 0.5625 -1.71875 0.84375l0 -1.59375q1.375 -0.640625 2.40625 -1.5625q1.03125 -0.921875 1.453125 -1.78125l1.0625 0l0 13.40625zm12.813232 -1.578125l0 1.578125l-8.828125 0q-0.015625 -0.59375 0.1875 -1.140625q0.34375 -0.90625 1.078125 -1.78125q0.75 -0.875 2.15625 -2.015625q2.171875 -1.78125 2.9375 -2.828125q0.765625 -1.046875 0.765625 -1.96875q0 -0.984375 -0.703125 -1.640625q-0.6875 -0.671875 -1.8125 -0.671875q-1.1875 0 -1.90625 0.71875q-0.703125 0.703125 -0.703125 1.953125l-1.6875 -0.171875q0.171875 -1.890625 1.296875 -2.875q1.140625 -0.984375 3.03125 -0.984375q1.921875 0 3.046875 1.0625q1.125 1.0625 1.125 2.640625q0 0.796875 -0.328125 1.578125q-0.328125 0.78125 -1.09375 1.640625q-0.75 0.84375 -2.53125 2.34375q-1.46875 1.234375 -1.890625 1.6875q-0.421875 0.4375 -0.6875 0.875l6.546875 0zm4.2819824 -5.65625q-1.015625 -0.375 -1.515625 -1.0625q-0.484375 -0.703125 -0.484375 -1.671875q0 -1.453125 1.046875 -2.4375q1.046875 -1.0 2.78125 -1.0q1.75 0 2.8125 1.015625q1.078125 1.015625 1.078125 2.46875q0 0.9375 -0.5 1.625q-0.484375 0.6875 -1.46875 1.0625q1.21875 0.390625 1.859375 1.28125q0.65625 0.890625 0.65625 2.140625q0 1.703125 -1.21875 2.875q-1.21875 1.171875 -3.1875 1.171875q-1.984375 0 -3.203125 -1.171875q-1.203125 -1.171875 -1.203125 -2.921875q0 -1.3125 0.65625 -2.1875q0.671875 -0.875 1.890625 -1.1875zm-0.328125 -2.78125q0 0.9375 0.609375 1.546875q0.609375 0.59375 1.59375 0.59375q0.9375 0 1.546875 -0.59375q0.609375 -0.59375 0.609375 -1.453125q0 -0.90625 -0.625 -1.515625q-0.625 -0.625 -1.5625 -0.625q-0.9375 0 -1.5625 0.609375q-0.609375 0.59375 -0.609375 1.4375zm-0.53125 6.15625q0 0.703125 0.328125 1.359375q0.34375 0.65625 1.0 1.015625q0.65625 0.359375 1.40625 0.359375q1.171875 0 1.9375 -0.75q0.765625 -0.75 0.765625 -1.921875q0 -1.1875 -0.796875 -1.953125q-0.78125 -0.78125 -1.953125 -0.78125q-1.15625 0 -1.921875 0.765625q-0.765625 0.765625 -0.765625 1.90625zm14.480896 3.859375l0 -13.359375l1.78125 0l0 6.625l6.625 -6.625l2.390625 0l-5.59375 5.421875l5.84375 7.9375l-2.328125 0l-4.765625 -6.765625l-2.171875 2.140625l0 4.625l-1.78125 0zm12.4435425 0l0 -13.359375l5.015625 0q1.53125 0 2.453125 0.40625q0.921875 0.40625 1.4375 1.25q0.53125 0.84375 0.53125 1.765625q0 0.859375 -0.46875 1.625q-0.453125 0.75 -1.390625 1.203125q1.203125 0.359375 1.859375 1.21875q0.65625 0.859375 0.65625 2.015625q0 0.9375 -0.40625 1.75q-0.390625 0.796875 -0.984375 1.234375q-0.578125 0.4375 -1.453125 0.671875q-0.875 0.21875 -2.15625 0.21875l-5.09375 0zm1.78125 -7.75l2.875 0q1.1875 0 1.6875 -0.140625q0.671875 -0.203125 1.015625 -0.671875q0.34375 -0.46875 0.34375 -1.171875q0 -0.65625 -0.328125 -1.15625q-0.3125 -0.515625 -0.90625 -0.703125q-0.59375 -0.1875 -2.03125 -0.1875l-2.65625 0l0 4.03125zm0 6.171875l3.3125 0q0.859375 0 1.203125 -0.0625q0.609375 -0.109375 1.015625 -0.359375q0.421875 -0.265625 0.6875 -0.75q0.265625 -0.484375 0.265625 -1.125q0 -0.75 -0.390625 -1.296875q-0.375 -0.546875 -1.0625 -0.765625q-0.671875 -0.234375 -1.953125 -0.234375l-3.078125 0l0 4.59375z" fill-rule="nonzero"/><path fill="#000000" fill-opacity="0.0" d="m671.23755 86.77165l89.921265 0l0 48.72441l-89.921265 0z" fill-rule="evenodd"/><path stroke="#000000" stroke-width="3.0" stroke-linejoin="round" stroke-linecap="butt" d="m671.23755 86.77165l89.921265 0l0 48.72441l-89.921265 0z" fill-rule="evenodd"/><path fill="#000000" fill-opacity="0.0" d="m678.3087 90.125984l80.8504 0l0 42.015755l-80.8504 0z" fill-rule="evenodd"/><path fill="#000000" d="m694.26184 117.04598l-1.640625 0l0 -10.453125q-0.59375 0.5625 -1.5625 1.140625q-0.953125 0.5625 -1.71875 0.84375l0 -1.59375q1.375 -0.640625 2.40625 -1.5625q1.03125 -0.921875 1.453125 -1.78125l1.0625 0l0 13.40625zm12.813232 -1.578125l0 1.578125l-8.828125 0q-0.015625 -0.59375 0.1875 -1.140625q0.34375 -0.90625 1.078125 -1.78125q0.75 -0.875 2.15625 -2.015625q2.171875 -1.78125 2.9375 -2.828125q0.765625 -1.046875 0.765625 -1.96875q0 -0.984375 -0.703125 -1.640625q-0.6875 -0.671875 -1.8125 -0.671875q-1.1875 0 -1.90625 0.71875q-0.703125 0.703125 -0.703125 1.953125l-1.6875 -0.171875q0.171875 -1.890625 1.296875 -2.875q1.140625 -0.984375 3.03125 -0.984375q1.921875 0 3.046875 1.0625q1.125 1.0625 1.125 2.640625q0 0.796875 -0.328125 1.578125q-0.328125 0.78125 -1.09375 1.640625q-0.75 0.84375 -2.53125 2.34375q-1.46875 1.234375 -1.890625 1.6875q-0.421875 0.4375 -0.6875 0.875l6.546875 0zm4.2819214 -5.65625q-1.015625 -0.375 -1.515625 -1.0625q-0.484375 -0.703125 -0.484375 -1.671875q0 -1.453125 1.046875 -2.4375q1.046875 -1.0 2.78125 -1.0q1.75 0 2.8125 1.015625q1.078125 1.015625 1.078125 2.46875q0 0.9375 -0.5 1.625q-0.484375 0.6875 -1.46875 1.0625q1.21875 0.390625 1.859375 1.28125q0.65625 0.890625 0.65625 2.140625q0 1.703125 -1.21875 2.875q-1.21875 1.171875 -3.1875 1.171875q-1.984375 0 -3.203125 -1.171875q-1.203125 -1.171875 -1.203125 -2.921875q0 -1.3125 0.65625 -2.1875q0.671875 -0.875 1.890625 -1.1875zm-0.328125 -2.78125q0 0.9375 0.609375 1.546875q0.609375 0.59375 1.59375 0.59375q0.9375 0 1.546875 -0.59375q0.609375 -0.59375 0.609375 -1.453125q0 -0.90625 -0.625 -1.515625q-0.625 -0.625 -1.5625 -0.625q-0.9375 0 -1.5625 0.609375q-0.609375 0.59375 -0.609375 1.4375zm-0.53125 6.15625q0 0.703125 0.328125 1.359375q0.34375 0.65625 1.0 1.015625q0.65625 0.359375 1.40625 0.359375q1.171875 0 1.9375 -0.75q0.765625 -0.75 0.765625 -1.921875q0 -1.1875 -0.796875 -1.953125q-0.78125 -0.78125 -1.953125 -0.78125q-1.15625 0 -1.921875 0.765625q-0.765625 0.765625 -0.765625 1.90625zm14.480896 3.859375l0 -13.359375l1.78125 0l0 6.625l6.625 -6.625l2.390625 0l-5.59375 5.421875l5.84375 7.9375l-2.328125 0l-4.765625 -6.765625l-2.171875 2.140625l0 4.625l-1.78125 0zm12.4436035 0l0 -13.359375l5.015625 0q1.53125 0 2.453125 0.40625q0.921875 0.40625 1.4375 1.25q0.53125 0.84375 0.53125 1.765625q0 0.859375 -0.46875 1.625q-0.453125 0.75 -1.390625 1.203125q1.203125 0.359375 1.859375 1.21875q0.65625 0.859375 0.65625 2.015625q0 0.9375 -0.40625 1.75q-0.390625 0.796875 -0.984375 1.234375q-0.578125 0.4375 -1.453125 0.671875q-0.875 0.21875 -2.15625 0.21875l-5.09375 0zm1.78125 -7.75l2.875 0q1.1875 0 1.6875 -0.140625q0.671875 -0.203125 1.015625 -0.671875q0.34375 -0.46875 0.34375 -1.171875q0 -0.65625 -0.328125 -1.15625q-0.3125 -0.515625 -0.90625 -0.703125q-0.59375 -0.1875 -2.03125 -0.1875l-2.65625 0l0 4.03125zm0 6.171875l3.3125 0q0.859375 0 1.203125 -0.0625q0.609375 -0.109375 1.015625 -0.359375q0.421875 -0.265625 0.6875 -0.75q0.265625 -0.484375 0.265625 -1.125q0 -0.75 -0.390625 -1.296875q-0.375 -0.546875 -1.0625 -0.765625q-0.671875 -0.234375 -1.953125 -0.234375l-3.078125 0l0 4.59375z" fill-rule="nonzero"/><path fill="#000000" fill-opacity="0.0" d="m175.39502 17.348032l460.7874 0l0 53.322838l-460.7874 0z" fill-rule="evenodd"/><path fill="#000000" d="m199.34341 53.228027l0 -20.046875l4.0 0l4.734375 14.1875q0.65625 1.984375 0.953125 2.96875q0.34375 -1.09375 1.078125 -3.203125l4.796875 -13.953125l3.5625 0l0 20.046875l-2.546875 0l0 -16.78125l-5.828125 16.78125l-2.390625 0l-5.796875 -17.0625l0 17.0625l-2.5625 0zm33.027344 -4.671875l2.546875 0.3125q-0.59375 2.21875 -2.234375 3.453125q-1.625 1.234375 -4.15625 1.234375q-3.171875 0 -5.046875 -1.953125q-1.859375 -1.96875 -1.859375 -5.515625q0 -3.65625 1.875 -5.671875q1.890625 -2.03125 4.90625 -2.03125q2.90625 0 4.75 1.984375q1.84375 1.96875 1.84375 5.578125q0 0.21875 -0.015625 0.65625l-10.828125 0q0.140625 2.390625 1.359375 3.65625q1.21875 1.265625 3.03125 1.265625q1.359375 0 2.3125 -0.703125q0.953125 -0.71875 1.515625 -2.265625zm-8.078125 -3.984375l8.109375 0q-0.15625 -1.828125 -0.921875 -2.75q-1.1875 -1.421875 -3.0625 -1.421875q-1.6875 0 -2.84375 1.140625q-1.15625 1.125 -1.28125 3.03125zm13.712891 8.65625l0 -14.515625l2.203125 0l0 2.03125q0.6875 -1.0625 1.8125 -1.703125q1.140625 -0.65625 2.59375 -0.65625q1.609375 0 2.640625 0.671875q1.03125 0.65625 1.453125 1.859375q1.734375 -2.53125 4.484375 -2.53125q2.171875 0 3.328125 1.203125q1.15625 1.1875 1.15625 3.671875l0 9.96875l-2.4375 0l0 -9.140625q0 -1.484375 -0.25 -2.125q-0.234375 -0.65625 -0.859375 -1.046875q-0.625 -0.40625 -1.484375 -0.40625q-1.53125 0 -2.546875 1.03125q-1.0 1.015625 -1.0 3.25l0 8.4375l-2.46875 0l0 -9.4375q0 -1.640625 -0.609375 -2.453125q-0.59375 -0.828125 -1.953125 -0.828125q-1.046875 0 -1.9375 0.546875q-0.875 0.546875 -1.265625 1.609375q-0.390625 1.046875 -0.390625 3.03125l0 7.53125l-2.46875 0zm22.417969 -7.265625q0 -4.03125 2.234375 -5.96875q1.875 -1.609375 4.5625 -1.609375q3.0 0 4.890625 1.96875q1.90625 1.953125 1.90625 5.40625q0 2.8125 -0.84375 4.421875q-0.828125 1.59375 -2.4375 2.484375q-1.609375 0.890625 -3.515625 0.890625q-3.046875 0 -4.921875 -1.953125q-1.875 -1.953125 -1.875 -5.640625zm2.515625 0q0 2.796875 1.21875 4.1875q1.21875 1.375 3.0625 1.375q1.84375 0 3.046875 -1.390625q1.21875 -1.390625 1.21875 -4.25q0 -2.6875 -1.21875 -4.078125q-1.21875 -1.390625 -3.046875 -1.390625q-1.84375 0 -3.0625 1.390625q-1.21875 1.375 -1.21875 4.15625zm13.931641 7.265625l0 -14.515625l2.21875 0l0 2.203125q0.84375 -1.546875 1.5625 -2.03125q0.71875 -0.5 1.578125 -0.5q1.25 0 2.53125 0.78125l-0.84375 2.296875q-0.90625 -0.546875 -1.796875 -0.546875q-0.8125 0 -1.453125 0.5q-0.640625 0.484375 -0.921875 1.34375q-0.40625 1.3125 -0.40625 2.859375l0 7.609375l-2.46875 0zm9.246094 5.59375l-0.265625 -2.3125q0.796875 0.21875 1.40625 0.21875q0.8125 0 1.296875 -0.28125q0.5 -0.265625 0.8125 -0.75q0.234375 -0.375 0.765625 -1.84375q0.0625 -0.203125 0.21875 -0.59375l-5.515625 -14.546875l2.65625 0l3.015625 8.40625q0.59375 1.59375 1.046875 3.359375q0.4375 -1.6875 1.015625 -3.3125l3.109375 -8.453125l2.453125 0l-5.515625 14.765625q-0.890625 2.390625 -1.390625 3.296875q-0.65625 1.21875 -1.5 1.78125q-0.84375 0.5625 -2.015625 0.5625q-0.71875 0 -1.59375 -0.296875zm18.453125 -5.59375l7.703125 -20.046875l2.859375 0l8.203125 20.046875l-3.015625 0l-2.34375 -6.078125l-8.375 0l-2.203125 6.078125l-2.828125 0zm5.796875 -8.234375l6.78125 0l-2.078125 -5.546875q-0.96875 -2.53125 -1.421875 -4.15625q-0.390625 1.921875 -1.09375 3.828125l-2.1875 5.875zm14.722656 8.234375l0 -20.046875l2.453125 0l0 20.046875l-2.453125 0zm6.220703 0l0 -20.046875l2.453125 0l0 20.046875l-2.453125 0zm5.361328 -7.265625q0 -4.03125 2.234375 -5.96875q1.875 -1.609375 4.5625 -1.609375q3.0 0 4.890625 1.96875q1.90625 1.953125 1.90625 5.40625q0 2.8125 -0.84375 4.421875q-0.828125 1.59375 -2.4375 2.484375q-1.609375 0.890625 -3.515625 0.890625q-3.046875 0 -4.921875 -1.953125q-1.875 -1.953125 -1.875 -5.640625zm2.515625 0q0 2.796875 1.21875 4.1875q1.21875 1.375 3.0625 1.375q1.84375 0 3.046875 -1.390625q1.21875 -1.390625 1.21875 -4.25q0 -2.6875 -1.21875 -4.078125q-1.21875 -1.390625 -3.046875 -1.390625q-1.84375 0 -3.0625 1.390625q-1.21875 1.375 -1.21875 4.15625zm23.447266 1.953125l2.40625 0.3125q-0.390625 2.5 -2.03125 3.921875q-1.625 1.40625 -4.0 1.40625q-2.984375 0 -4.796875 -1.9375q-1.8125 -1.953125 -1.8125 -5.59375q0 -2.359375 0.78125 -4.109375q0.78125 -1.765625 2.375 -2.640625q1.59375 -0.890625 3.46875 -0.890625q2.359375 0 3.859375 1.203125q1.5 1.1875 1.9375 3.390625l-2.40625 0.359375q-0.328125 -1.453125 -1.203125 -2.1875q-0.875 -0.75 -2.09375 -0.75q-1.859375 0 -3.03125 1.34375q-1.15625 1.328125 -1.15625 4.203125q0 2.9375 1.109375 4.265625q1.125 1.3125 2.9375 1.3125q1.453125 0 2.421875 -0.875q0.96875 -0.890625 1.234375 -2.734375zm14.0 3.515625q-1.375 1.171875 -2.640625 1.65625q-1.265625 0.46875 -2.71875 0.46875q-2.390625 0 -3.671875 -1.171875q-1.28125 -1.171875 -1.28125 -2.984375q0 -1.0625 0.484375 -1.9375q0.484375 -0.890625 1.265625 -1.421875q0.796875 -0.53125 1.78125 -0.8125q0.71875 -0.1875 2.1875 -0.375q2.96875 -0.34375 4.375 -0.84375q0.015625 -0.5 0.015625 -0.640625q0 -1.5 -0.6875 -2.125q-0.953125 -0.828125 -2.8125 -0.828125q-1.734375 0 -2.5625 0.609375q-0.828125 0.609375 -1.21875 2.15625l-2.40625 -0.328125q0.328125 -1.546875 1.078125 -2.5q0.75 -0.953125 2.171875 -1.453125q1.421875 -0.515625 3.296875 -0.515625q1.859375 0 3.015625 0.4375q1.171875 0.4375 1.71875 1.109375q0.546875 0.65625 0.765625 1.65625q0.125 0.640625 0.125 2.28125l0 3.28125q0 3.421875 0.15625 4.34375q0.15625 0.90625 0.625 1.734375l-2.578125 0q-0.375 -0.765625 -0.484375 -1.796875zm-0.21875 -5.484375q-1.328125 0.546875 -4.015625 0.921875q-1.515625 0.21875 -2.140625 0.5q-0.625 0.265625 -0.96875 0.796875q-0.34375 0.515625 -0.34375 1.171875q0 0.984375 0.734375 1.640625q0.75 0.65625 2.1875 0.65625q1.421875 0 2.53125 -0.625q1.109375 -0.625 1.625 -1.703125q0.390625 -0.84375 0.390625 -2.46875l0 -0.890625zm11.681641 5.078125l0.359375 2.171875q-1.046875 0.21875 -1.859375 0.21875q-1.34375 0 -2.078125 -0.421875q-0.734375 -0.421875 -1.046875 -1.109375q-0.296875 -0.6875 -0.296875 -2.90625l0 -8.359375l-1.796875 0l0 -1.90625l1.796875 0l0 -3.59375l2.453125 -1.484375l0 5.078125l2.46875 0l0 1.90625l-2.46875 0l0 8.5q0 1.046875 0.125 1.34375q0.125 0.296875 0.421875 0.484375q0.296875 0.171875 0.84375 0.171875q0.40625 0 1.078125 -0.09375zm12.341797 -2.46875l2.546875 0.3125q-0.59375 2.21875 -2.234375 3.453125q-1.625 1.234375 -4.15625 1.234375q-3.171875 0 -5.046875 -1.953125q-1.859375 -1.96875 -1.859375 -5.515625q0 -3.65625 1.875 -5.671875q1.890625 -2.03125 4.90625 -2.03125q2.90625 0 4.75 1.984375q1.84375 1.96875 1.84375 5.578125q0 0.21875 -0.015625 0.65625l-10.828125 0q0.140625 2.390625 1.359375 3.65625q1.21875 1.265625 3.03125 1.265625q1.359375 0 2.3125 -0.703125q0.953125 -0.71875 1.515625 -2.265625zm-8.078125 -3.984375l8.109375 0q-0.15625 -1.828125 -0.921875 -2.75q-1.1875 -1.421875 -3.0625 -1.421875q-1.6875 0 -2.84375 1.140625q-1.15625 1.125 -1.28125 3.03125zm23.134766 8.65625l0 -1.828125q-1.375 2.15625 -4.0625 2.15625q-1.734375 0 -3.1875 -0.953125q-1.453125 -0.96875 -2.265625 -2.671875q-0.796875 -1.71875 -0.796875 -3.953125q0 -2.171875 0.71875 -3.9375q0.734375 -1.78125 2.1875 -2.71875q1.453125 -0.9375 3.234375 -0.9375q1.3125 0 2.328125 0.5625q1.03125 0.546875 1.6875 1.421875l0 -7.1875l2.4375 0l0 20.046875l-2.28125 0zm-7.78125 -7.25q0 2.796875 1.171875 4.171875q1.1875 1.375 2.78125 1.375q1.609375 0 2.734375 -1.3125q1.140625 -1.3125 1.140625 -4.03125q0 -2.96875 -1.15625 -4.359375q-1.140625 -1.40625 -2.828125 -1.40625q-1.640625 0 -2.75 1.34375q-1.09375 1.34375 -1.09375 4.21875zm23.976562 7.25l-2.28125 0l0 -20.046875l2.46875 0l0 7.15625q1.5625 -1.953125 3.96875 -1.953125q1.34375 0 2.53125 0.546875q1.203125 0.53125 1.96875 1.515625q0.78125 0.96875 1.21875 2.359375q0.4375 1.375 0.4375 2.9375q0 3.734375 -1.84375 5.78125q-1.84375 2.03125 -4.421875 2.03125q-2.578125 0 -4.046875 -2.140625l0 1.8125zm-0.015625 -7.375q0 2.609375 0.703125 3.78125q1.171875 1.890625 3.140625 1.890625q1.625 0 2.796875 -1.390625q1.171875 -1.40625 1.171875 -4.1875q0 -2.84375 -1.125 -4.1875q-1.125 -1.359375 -2.734375 -1.359375q-1.609375 0 -2.78125 1.40625q-1.171875 1.40625 -1.171875 4.046875zm13.212891 12.96875l-0.265625 -2.3125q0.796875 0.21875 1.40625 0.21875q0.8125 0 1.296875 -0.28125q0.5 -0.265625 0.8125 -0.75q0.234375 -0.375 0.765625 -1.84375q0.0625 -0.203125 0.21875 -0.59375l-5.515625 -14.546875l2.65625 0l3.015625 8.40625q0.59375 1.59375 1.046875 3.359375q0.4375 -1.6875 1.015625 -3.3125l3.109375 -8.453125l2.453125 0l-5.515625 14.765625q-0.890625 2.390625 -1.390625 3.296875q-0.65625 1.21875 -1.5 1.78125q-0.84375 0.5625 -2.015625 0.5625q-0.71875 0 -1.59375 -0.296875zm22.123047 -5.59375l0 -20.046875l4.0 0l4.734375 14.1875q0.65625 1.984375 0.953125 2.96875q0.34375 -1.09375 1.078125 -3.203125l4.796875 -13.953125l3.5625 0l0 20.046875l-2.546875 0l0 -16.78125l-5.828125 16.78125l-2.390625 0l-5.796875 -17.0625l0 17.0625l-2.5625 0zm33.027344 -4.671875l2.546875 0.3125q-0.59375 2.21875 -2.234375 3.453125q-1.625 1.234375 -4.15625 1.234375q-3.171875 0 -5.046875 -1.953125q-1.859375 -1.96875 -1.859375 -5.515625q0 -3.65625 1.875 -5.671875q1.890625 -2.03125 4.90625 -2.03125q2.90625 0 4.75 1.984375q1.84375 1.96875 1.84375 5.578125q0 0.21875 -0.015625 0.65625l-10.828125 0q0.140625 2.390625 1.359375 3.65625q1.21875 1.265625 3.03125 1.265625q1.359375 0 2.3125 -0.703125q0.953125 -0.71875 1.515625 -2.265625zm-8.078125 -3.984375l8.109375 0q-0.15625 -1.828125 -0.921875 -2.75q-1.1875 -1.421875 -3.0625 -1.421875q-1.6875 0 -2.84375 1.140625q-1.15625 1.125 -1.28125 3.03125zm19.08789 6.453125l0.359375 2.171875q-1.046875 0.21875 -1.859375 0.21875q-1.34375 0 -2.078125 -0.421875q-0.734375 -0.421875 -1.046875 -1.109375q-0.296875 -0.6875 -0.296875 -2.90625l0 -8.359375l-1.796875 0l0 -1.90625l1.796875 0l0 -3.59375l2.453125 -1.484375l0 5.078125l2.46875 0l0 1.90625l-2.46875 0l0 8.5q0 1.046875 0.125 1.34375q0.125 0.296875 0.421875 0.484375q0.296875 0.171875 0.84375 0.171875q0.40625 0 1.078125 -0.09375zm11.888641 0.40625q-1.375 1.171875 -2.640625 1.65625q-1.265625 0.46875 -2.71875 0.46875q-2.390625 0 -3.671875 -1.171875q-1.28125 -1.171875 -1.28125 -2.984375q0 -1.0625 0.484375 -1.9375q0.484375 -0.890625 1.265625 -1.421875q0.796875 -0.53125 1.78125 -0.8125q0.71875 -0.1875 2.1875 -0.375q2.96875 -0.34375 4.375 -0.84375q0.015625 -0.5 0.015625 -0.640625q0 -1.5 -0.6875 -2.125q-0.953125 -0.828125 -2.8125 -0.828125q-1.734375 0 -2.5625 0.609375q-0.828125 0.609375 -1.21875 2.15625l-2.40625 -0.328125q0.328125 -1.546875 1.078125 -2.5q0.75 -0.953125 2.171875 -1.453125q1.421875 -0.515625 3.296875 -0.515625q1.859375 0 3.015625 0.4375q1.171875 0.4375 1.71875 1.109375q0.546875 0.65625 0.765625 1.65625q0.125 0.640625 0.125 2.28125l0 3.28125q0 3.421875 0.15625 4.34375q0.15625 0.90625 0.625 1.734375l-2.578125 0q-0.375 -0.765625 -0.484375 -1.796875zm-0.21875 -5.484375q-1.328125 0.546875 -4.015625 0.921875q-1.515625 0.21875 -2.140625 0.5q-0.625 0.265625 -0.96875 0.796875q-0.34375 0.515625 -0.34375 1.171875q0 0.984375 0.734375 1.640625q0.75 0.65625 2.1875 0.65625q1.421875 0 2.53125 -0.625q1.109375 -0.625 1.625 -1.703125q0.390625 -0.84375 0.390625 -2.46875l0 -0.890625zm6.2597656 7.28125l0 -20.046875l2.453125 0l0 20.046875l-2.453125 0zm6.955078 -11.71875l0 -2.796875l2.796875 0l0 2.796875l-2.796875 0zm0 11.71875l0 -2.796875l2.796875 0l0 2.796875l-2.796875 0zm23.464844 0l-2.46875 0l0 -15.6875q-0.890625 0.859375 -2.328125 1.703125q-1.4375 0.84375 -2.59375 1.265625l0 -2.375q2.0625 -0.96875 3.609375 -2.34375q1.546875 -1.390625 2.1875 -2.6875l1.59375 0l0 20.125zm14.9921875 0l0 -20.046875l4.0 0l4.734375 14.1875q0.65625 1.984375 0.953125 2.96875q0.34375 -1.09375 1.078125 -3.203125l4.796875 -13.953125l3.5625 0l0 20.046875l-2.546875 0l0 -16.78125l-5.828125 16.78125l-2.390625 0l-5.796875 -17.0625l0 17.0625l-2.5625 0zm23.292969 0l0 -20.046875l7.53125 0q2.296875 0 3.671875 0.609375q1.390625 0.609375 2.171875 1.875q0.796875 1.265625 0.796875 2.640625q0 1.296875 -0.703125 2.4375q-0.6875 1.125 -2.109375 1.8125q1.828125 0.546875 2.796875 1.828125q0.984375 1.28125 0.984375 3.03125q0 1.40625 -0.59375 2.625q-0.59375 1.203125 -1.46875 1.859375q-0.875 0.65625 -2.203125 1.0q-1.3125 0.328125 -3.234375 0.328125l-7.640625 0zm2.65625 -11.625l4.328125 0q1.765625 0 2.53125 -0.234375q1.015625 -0.296875 1.53125 -0.984375q0.515625 -0.703125 0.515625 -1.765625q0 -0.984375 -0.484375 -1.75q-0.484375 -0.765625 -1.375 -1.03125q-0.875 -0.28125 -3.046875 -0.28125l-4.0 0l0 6.046875zm0 9.265625l4.984375 0q1.296875 0 1.8125 -0.109375q0.921875 -0.15625 1.53125 -0.53125q0.609375 -0.390625 1.0 -1.125q0.40625 -0.734375 0.40625 -1.6875q0 -1.125 -0.578125 -1.953125q-0.5625 -0.828125 -1.59375 -1.15625q-1.015625 -0.328125 -2.921875 -0.328125l-4.640625 0l0 6.890625z" fill-rule="nonzero"/><path fill="#6aa84f" d="m103.24016 286.34122l11.527557 0l0 48.724396l-11.527557 0z" fill-rule="evenodd"/><path fill="#000000" fill-opacity="0.0" d="m110.10761 286.27823l-0.15747833 48.850372" fill-rule="evenodd"/><path stroke="#000000" stroke-width="3.0" stroke-linejoin="round" stroke-linecap="butt" d="m110.10761 286.27823l-0.15747833 48.850372" fill-rule="evenodd"/><path fill="#6aa84f" d="m95.39764 286.34122l7.6850433 0l0 48.724396l-7.6850433 0z" fill-rule="evenodd"/><path fill="#000000" fill-opacity="0.0" d="m103.242 286.27823l-0.15748596 48.850372" fill-rule="evenodd"/><path stroke="#000000" stroke-width="3.0" stroke-linejoin="round" stroke-linecap="butt" d="m103.242 286.27823l-0.15748596 48.850372" fill-rule="evenodd"/><path fill="#6aa84f" d="m85.63386 286.34122l9.6063 0l0 48.724396l-9.6063 0z" fill-rule="evenodd"/><path fill="#000000" fill-opacity="0.0" d="m95.39764 286.27823l-0.15747833 48.850372" fill-rule="evenodd"/><path stroke="#000000" stroke-width="3.0" stroke-linejoin="round" stroke-linecap="butt" d="m95.39764 286.27823l-0.15747833 48.850372" fill-rule="evenodd"/><path fill="#6aa84f" d="m67.238846 286.34122l18.236221 0l0 48.724396l-18.236221 0z" fill-rule="evenodd"/><path fill="#000000" fill-opacity="0.0" d="m85.63386 286.27823l-0.15747833 48.850372" fill-rule="evenodd"/><path stroke="#000000" stroke-width="3.0" stroke-linejoin="round" stroke-linecap="butt" d="m85.63386 286.27823l-0.15747833 48.850372" fill-rule="evenodd"/><path fill="#6aa84f" d="m61.316273 286.34122l5.7637825 0l0 48.724396l-5.7637825 0z" fill-rule="evenodd"/><path fill="#000000" fill-opacity="0.0" d="m67.238846 286.27823l-0.15747833 48.850372" fill-rule="evenodd"/><path stroke="#000000" stroke-width="3.0" stroke-linejoin="round" stroke-linecap="butt" d="m67.238846 286.27823l-0.15747833 48.850372" fill-rule="evenodd"/><path fill="#6aa84f" d="m53.473755 286.34122l7.6850395 0l0 48.724396l-7.6850395 0z" fill-rule="evenodd"/><path fill="#000000" fill-opacity="0.0" d="m61.317585 286.27823l-0.15747833 48.850372" fill-rule="evenodd"/><path stroke="#000000" stroke-width="3.0" stroke-linejoin="round" stroke-linecap="butt" d="m61.317585 286.27823l-0.15747833 48.850372" fill-rule="evenodd"/><path fill="#6aa84f" d="m41.790745 286.4042l11.527557 0l0 48.724396l-11.527557 0z" fill-rule="evenodd"/><path fill="#000000" fill-opacity="0.0" d="m53.475067 286.27823l-0.15748215 48.850372" fill-rule="evenodd"/><path stroke="#000000" stroke-width="3.0" stroke-linejoin="round" stroke-linecap="butt" d="m53.475067 286.27823l-0.15748215 48.850372" fill-rule="evenodd"/><path fill="#000000" fill-opacity="0.0" d="m41.788715 286.34122l89.921265 0l0 48.724396l-89.921265 0z" fill-rule="evenodd"/><path stroke="#000000" stroke-width="3.0" stroke-linejoin="round" stroke-linecap="butt" d="m41.788715 286.34122l89.921265 0l0 48.724396l-89.921265 0z" fill-rule="evenodd"/></g></svg>